<?xml version="1.0" encoding="utf-8"?>
<!-- Generator: Adobe Illustrator 16.0.0, SVG Export Plug-In . SVG Version: 6.00 Build 0)  -->
<!DOCTYPE svg PUBLIC "-//W3C//DTD SVG 1.1//EN" "http://www.w3.org/Graphics/SVG/1.1/DTD/svg11.dtd">
<svg version="1.1"
	 id="svg548" sodipodi:docbase="/home/cschalle/gnome-themes-extras/Nuvola/icons/scalable/stock" sodipodi:docname="/home/cschalle/gnome-themes-extras/Nuvola/icons/scalable/stock/stock_undo.svg" sodipodi:version="0.32" xmlns:xml="http://www.w3.org/XML/1998/namespace" xmlns:sodipodi="http://sodipodi.sourceforge.net/DTD/sodipodi-0.dtd"
	 xmlns="http://www.w3.org/2000/svg" xmlns:xlink="http://www.w3.org/1999/xlink" x="0px" y="0px" width="48px" height="48px"
	 viewBox="0 0 48 48" enable-background="new 0 0 48 48" xml:space="preserve">
<sodipodi:namedview  id="base"></sodipodi:namedview>
<g id="Layer_2">
	<path id="path550" fill="none" d="M48,48H0V0h48V48z"/>
</g>
<g id="Layer_1">
	<path id="path552" opacity="0.2" enable-background="new    " d="M23.01,46.591c0.58-0.286,0.939-0.866,0.939-1.513
		c0,0,0-5.153,0-5.712c2.621-0.504,7.389-1.956,11.939-6.134c7.218-6.627,10.878-17.18,10.878-31.367
		c0-0.865-0.648-1.586-1.508-1.678c-0.86-0.092-1.646,0.477-1.829,1.32c-2.031,9.381-5.929,15.838-11.586,19.193
		c-3.051,1.809-5.912,2.299-7.895,2.376c0-0.68,0-5.426,0-5.426c0-0.646-0.359-1.226-0.939-1.513
		c-0.579-0.286-1.259-0.221-1.772,0.172L3.288,30.023c-0.415,0.317-0.663,0.818-0.663,1.342c0,0.522,0.248,1.023,0.663,1.341
		l17.949,13.713C21.751,46.812,22.431,46.877,23.01,46.591z"/>
	<path id="path553" fill="#3A3333" d="M22.072,47.526c0.579-0.286,0.939-0.866,0.939-1.513c0,0,0-5.153,0-5.712
		c2.621-0.504,7.389-1.956,11.939-6.134c7.218-6.627,10.878-17.18,10.878-31.367c0-0.864-0.648-1.586-1.508-1.678
		c-0.86-0.092-1.646,0.477-1.829,1.321c-2.031,9.38-5.929,15.837-11.586,19.192c-3.051,1.809-5.912,2.299-7.895,2.376
		c0-0.68,0-5.425,0-5.425c0-0.646-0.36-1.227-0.939-1.514c-0.579-0.285-1.259-0.221-1.772,0.172L2.351,30.96
		c-0.415,0.316-0.663,0.818-0.663,1.341s0.248,1.023,0.663,1.341L20.3,47.354C20.813,47.747,21.493,47.813,22.072,47.526z"/>
	<path id="path554" fill="#3A3333" d="M21.906,47.19c0.45-0.223,0.73-0.674,0.73-1.177c0,0,0-5.452,0-6.022
		c2.644-0.466,7.451-1.868,12.061-6.1c7.138-6.553,10.757-17.013,10.757-31.091c0-0.672-0.505-1.233-1.173-1.305
		c-0.669-0.071-1.28,0.37-1.423,1.027c-2.054,9.486-6.011,16.025-11.762,19.436c-3.429,2.033-6.645,2.417-8.46,2.444
		c0-0.67,0-5.815,0-5.815c0-0.503-0.28-0.954-0.73-1.177c-0.451-0.224-0.979-0.172-1.379,0.134L2.578,31.258
		c-0.323,0.246-0.516,0.637-0.516,1.043s0.192,0.796,0.516,1.043l17.949,13.713C20.927,47.362,21.455,47.413,21.906,47.19z"/>
	<path id="path555" fill="#660000" d="M21.739,46.854c0.32-0.158,0.522-0.484,0.522-0.841c0,0,0-5.052,0-6.338
		c2.324-0.37,7.385-1.655,12.182-6.061c7.058-6.479,10.636-16.846,10.636-30.814c0-0.479-0.361-0.881-0.838-0.932
		s-0.915,0.266-1.017,0.733c-2.076,9.593-6.092,16.214-11.937,19.679c-3.749,2.224-7.263,2.521-9.026,2.502c0-1.371,0-6.195,0-6.195
		c0-0.357-0.202-0.683-0.522-0.841c-0.319-0.158-0.701-0.121-0.984,0.096L2.806,31.556c-0.232,0.178-0.368,0.453-0.368,0.745
		s0.136,0.567,0.368,0.745l17.949,13.713C21.038,46.976,21.42,47.013,21.739,46.854z"/>
	
		<linearGradient id="path562_1_" gradientUnits="userSpaceOnUse" x1="1193.3525" y1="-1819.7798" x2="1410.7744" y2="-1819.7798" gradientTransform="matrix(0.1875 0 0 0.1875 -220.3789 365.6162)">
		<stop  offset="0" style="stop-color:#FF9999"/>
		<stop  offset="1" style="stop-color:#FF3333"/>
	</linearGradient>
	<path id="path562" fill="url(#path562_1_)" d="M44.142,2.801C39.079,26.185,23.811,25.89,21.324,25.682v-7.094L3.375,32.301
		l17.949,13.713v-7.159C24.195,38.562,44.142,35.354,44.142,2.801z"/>
	<path id="path563" fill="#FFCCCC" d="M3.916,32.715l17.408-12.521v-1.606L3.375,32.301L3.916,32.715z M44.092,5.537
		c0.032-0.889,0.05-1.799,0.05-2.736C39.079,26.185,23.811,25.89,21.324,25.682v1.191C23.803,27.067,38.981,27.341,44.092,5.537z"/>
	<g id="g564">
		
			<linearGradient id="path571_1_" gradientUnits="userSpaceOnUse" x1="1284.3311" y1="-1720.0742" x2="1284.3311" y2="-1812.0747" gradientTransform="matrix(0.1875 0 0 0.1875 -220.3789 365.6162)">
			<stop  offset="0" style="stop-color:#FFFFFF"/>
			<stop  offset="1" style="stop-color:#FF6666"/>
		</linearGradient>
		<path id="path571" fill="url(#path571_1_)" d="M24.094,28.76c-7.903,0-14.861,1.703-18.924,4.286
			c-0.1,0.076-0.185,0.142-0.251,0.192c1.589,1.214,13.089,10,15.468,11.816c0-2.049,0-6.109,0-6.109l0.843-0.086
			c1.518-0.154,6.866-1.023,11.946-5.688c0.998-0.916,1.922-1.918,2.771-3.005C32.497,29.274,28.438,28.76,24.094,28.76z"/>
	</g>
</g>
</svg>
