<svg width="575.1000122070312px" height="192.28001708984374px" xmlns="http://www.w3.org/2000/svg" viewBox="-37.550006103515614 -21.14000854492187 575.1000122070312 192.28001708984374" style="background: rgba(89, 104, 134, 0) none repeat scroll 0% 0%;" preserveAspectRatio="xMidYMid"><defs><filter id="editing-hover" x="-100%" y="-100%" width="300%" height="300%"><feFlood flood-color="#052b4a" result="flood"></feFlood><feComposite operator="in" in2="SourceAlpha" in="flood" result="shadow"></feComposite><feOffset dx="-4" dy="-4" in="SourceGraphic" result="offset-1"></feOffset><feOffset dx="4" dy="4" in="shadow" result="offset-2"></feOffset><feMerge><feMergeNode in="offset-2"></feMergeNode><feMergeNode in="offset-1"></feMergeNode></feMerge></filter></defs><g filter="url(#editing-hover)"><g transform="translate(48.61646270751953, 111.95999717712402)"><path d="M9.28 0.83L9.28 0.83Q2.82 0.83-0.64-6.59L-0.64-6.59L-0.64-6.59Q-2.50-10.62-2.50-11.46L-2.50-11.46L-2.50-11.46Q-2.50-12.29-2.02-12.90L-2.02-12.90L-2.02-12.90Q-1.54-13.50-1.02-13.50L-1.02-13.50L-1.02-13.50Q0.06-13.50 0.26-12.67L0.26-12.67L0.26-12.67Q1.41-8.06 3.97-4.99L3.97-4.99L3.97-4.99Q6.53-1.92 10.37-1.92L10.37-1.92L10.37-1.92Q16.58-1.92 20-7.90L20-7.90L20-7.90Q23.42-13.89 25.47-23.74L25.47-23.74L32.77-58.37L32.77-58.37Q30.40-57.09 28.10-57.09L28.10-57.09L28.10-57.09Q26.05-57.09 21.44-58.24L21.44-58.24L21.44-58.24Q18.37-59.07 16.70-59.20L16.70-59.20L16.70-59.20Q15.81-59.58 15.81-60.22L15.81-60.22L15.81-60.22Q15.81-60.86 16.35-61.44L16.35-61.44L16.35-61.44Q16.90-62.02 17.60-62.14L17.60-62.14L17.60-62.14Q18.69-62.02 21.76-61.25L21.76-61.25L21.76-61.25Q26.24-60.10 28.16-60.10L28.16-60.10L28.16-60.10Q30.34-60.10 32.38-61.31L32.38-61.31L32.38-61.31Q32.96-61.63 33.60-61.60L33.60-61.60L33.60-61.60Q34.24-61.57 34.69-61.57L34.69-61.57L34.69-61.57Q35.58-61.57 35.90-60.48L35.90-60.48L35.90-60.48Q32.96-49.54 27.97-21.57L27.97-21.57L27.97-21.57Q25.86-10.88 21.60-5.02L21.60-5.02L21.60-5.02Q17.34 0.83 9.28 0.83L9.28 0.83ZM42.82 0.58L42.82 0.58Q39.49 0.58 37.86-2.05L37.86-2.05L37.86-2.05Q36.22-4.67 36.22-8.32L36.22-8.32L36.22-8.32Q36.22-14.14 38.18-19.62L38.18-19.62L38.18-19.62Q40.13-25.09 43.52-28.67L43.52-28.67L43.52-28.67Q46.78-32.32 50.88-32.32L50.88-32.32L50.88-32.32Q56.77-32.32 56.77-23.36L56.77-23.36L56.77-23.36Q56.77-18.88 55.30-14.21L55.30-14.21L55.30-14.21Q53.82-9.54 51.49-5.89L51.49-5.89L51.49-5.89Q49.15-2.24 46.66-0.64L46.66-0.64L46.66-0.64Q44.74 0.58 42.82 0.58L42.82 0.58ZM43.33-2.30L43.33-2.30Q45.31-2.30 47.78-5.76L47.78-5.76L47.78-5.76Q50.24-9.22 51.90-14.34L51.90-14.34L51.90-14.34Q53.63-19.46 53.63-23.04L53.63-23.04L53.63-23.04Q53.63-26.75 53.18-27.65L53.18-27.65L53.18-27.65Q52.80-28.61 52.22-28.99L52.22-28.99L52.22-28.99Q51.65-29.38 50.43-29.38L50.43-29.38L50.43-29.38Q49.09-29.38 47.62-28.35L47.62-28.35L47.62-28.35Q44.67-26.50 42.50-21.95L42.50-21.95L42.50-21.95Q39.10-15.17 39.10-8.77L39.10-8.77L39.10-8.77Q39.10-4.42 41.60-2.75L41.60-2.75L41.60-2.75Q42.50-2.30 43.33-2.30L43.33-2.30ZM62.85 0.64L62.85 0.64Q60.67 0.64 60.67-2.88L60.67-2.88L60.67-2.88Q60.67-3.78 60.99-4.48L60.99-4.48L60.99-4.48Q61.31-5.57 61.57-6.98L61.57-6.98L62.53-11.26L63.81-16.90L63.81-16.90Q64.45-20.03 65.34-23.94L65.34-23.94L65.34-23.94Q65.47-24.32 65.60-25.22L65.60-25.22L65.60-25.22Q66.24-27.97 66.24-28.42L66.24-28.42L66.24-29.06L66.24-29.06Q66.24-29.57 65.79-31.17L65.79-31.17L65.79-31.17Q65.79-31.94 66.34-32.58L66.34-32.58L66.34-32.58Q66.88-33.22 67.65-33.22L67.65-33.22L67.65-33.22Q68.35-33.22 68.86-32.26L68.86-32.26L68.86-32.26Q69.38-31.30 69.38-30.14L69.38-30.14L69.38-30.14Q69.38-28.86 66.43-16.32L66.43-16.32L66.43-16.32Q63.49-3.78 63.49-3.01L63.49-3.01L63.49-3.01Q63.49-2.30 64.13-2.30L64.13-2.30L64.13-2.30Q64.45-2.30 65.28-3.14L65.28-3.14L65.28-3.14Q66.05-3.90 66.56-3.90L66.56-3.90L66.56-3.90Q67.58-3.90 67.58-2.62L67.58-2.62L67.58-2.62Q67.58-1.86 66.69-1.09L66.69-1.09L66.69-1.09Q65.79-0.32 64.64 0.16L64.64 0.16L64.64 0.16Q63.49 0.64 62.85 0.64L62.85 0.64ZM69.31-38.02L69.31-38.02Q68.29-38.02 67.78-38.27L67.78-38.27L67.52-38.27L67.52-38.27Q65.66-38.27 65.66-40.45L65.66-40.45L65.66-40.45Q65.66-41.54 66.59-42.43L66.59-42.43L66.59-42.43Q67.52-43.33 68.61-43.33L68.61-43.33L68.61-43.33Q69.70-43.33 70.66-42.56L70.66-42.56L70.66-42.56Q71.74-41.47 71.74-40.45L71.74-40.45L71.74-40.45Q71.74-39.49 71.01-38.75L71.01-38.75L71.01-38.75Q70.27-38.02 69.31-38.02L69.31-38.02ZM92.29 0.38L92.29 0.38Q91.26 0.38 90.82 0L90.82 0L90.82 0Q90.37-0.38 90.50-1.34L90.50-1.34L93.63-20.03L93.63-20.03Q94.21-23.49 94.21-25.34L94.21-25.34L94.21-25.34Q94.21-28.42 92.48-28.42L92.48-28.42L92.48-28.42Q90.37-28.42 86.69-21.09L86.69-21.09L86.69-21.09Q83.01-13.76 79.10-4.54L79.10-4.54L78.21-2.50L78.21-2.50Q77.06 0 75.90 0L75.90 0L75.90 0Q75.26 0 75.10-0.29L75.10-0.29L75.10-0.29Q74.94-0.58 74.94-1.54L74.94-1.54L74.94-1.54Q74.94-2.50 77.47-16.32L77.47-16.32L77.47-16.32Q80-30.14 80.38-30.85L80.38-30.85L80.38-30.85Q80.77-31.62 81.06-31.81L81.06-31.81L81.06-31.81Q81.34-32 82.18-32L82.18-32L82.18-32Q82.94-32 83.42-31.42L83.42-31.42L83.42-31.42Q83.90-30.85 83.90-30.27L83.90-30.27L83.90-30.27Q83.90-29.89 83.26-27.78L83.26-27.78L83.26-27.78Q81.34-21.25 80.26-15.10L80.26-15.10L79.62-11.33L79.62-11.33Q80.70-13.63 81.22-14.91L81.22-14.91L81.22-14.91Q83.01-19.07 84.51-22.21L84.51-22.21L84.51-22.21Q86.02-25.34 87.87-28.03L87.87-28.03L87.87-28.03Q90.69-32.06 93.12-32.06L93.12-32.06L93.12-32.06Q97.41-32.06 97.41-25.15L97.41-25.15L97.41-25.15Q97.41-23.68 97.02-21.38L97.02-21.38L97.02-21.38Q96.64-19.07 96.19-16.64L96.19-16.64L96.19-16.64Q95.30-11.97 95.04-10.24L95.04-10.24L94.59-7.30L94.59-7.30Q94.02-3.33 93.57-1.47L93.57-1.47L93.57-1.47Q93.12 0.38 92.29 0.38L92.29 0.38ZM126.08 0.58L126.08 0.58Q122.75 0.58 121.12-2.05L121.12-2.05L121.12-2.05Q119.49-4.67 119.49-8.32L119.49-8.32L119.49-8.32Q119.49-14.14 121.44-19.62L121.44-19.62L121.44-19.62Q123.39-25.09 126.78-28.67L126.78-28.67L126.78-28.67Q130.05-32.32 134.14-32.32L134.14-32.32L134.14-32.32Q140.03-32.32 140.03-23.36L140.03-23.36L140.03-23.36Q140.03-18.88 138.56-14.21L138.56-14.21L138.56-14.21Q137.09-9.54 134.75-5.89L134.75-5.89L134.75-5.89Q132.42-2.24 129.92-0.64L129.92-0.64L129.92-0.64Q128 0.58 126.08 0.58L126.08 0.58ZM126.59-2.30L126.59-2.30Q128.58-2.30 131.04-5.76L131.04-5.76L131.04-5.76Q133.50-9.22 135.17-14.34L135.17-14.34L135.17-14.34Q136.90-19.46 136.90-23.04L136.90-23.04L136.90-23.04Q136.90-26.75 136.45-27.65L136.45-27.65L136.45-27.65Q136.06-28.61 135.49-28.99L135.49-28.99L135.49-28.99Q134.91-29.38 133.70-29.38L133.70-29.38L133.70-29.38Q132.35-29.38 130.88-28.35L130.88-28.35L130.88-28.35Q127.94-26.50 125.76-21.95L125.76-21.95L125.76-21.95Q122.37-15.17 122.37-8.77L122.37-8.77L122.37-8.77Q122.37-4.42 124.86-2.75L124.86-2.75L124.86-2.75Q125.76-2.30 126.59-2.30L126.59-2.30ZM160.64 1.54L160.64 1.54Q158.72 1.54 158.72-3.58L158.72-3.58L158.72-3.58Q158.72-6.27 159.17-8.96L159.17-8.96L159.17-8.96Q159.62-11.65 160.58-15.94L160.58-15.94L161.09-18.30L161.09-18.30Q160-16.19 158.53-12.93L158.53-12.93L158.53-12.93Q155.90-7.55 153.25-3.52L153.25-3.52L153.25-3.52Q150.59 0.51 147.97 0.51L147.97 0.51L147.97 0.51Q144.51 0.51 144.51-6.34L144.51-6.34L144.51-6.34Q144.51-14.85 147.26-26.24L147.26-26.24L148.29-30.14L148.29-30.14Q148.86-32.26 150.27-32.26L150.27-32.26L150.27-32.26Q151.04-32.26 151.36-31.17L151.36-31.17L151.36-31.17Q151.23-30.02 150.85-28.42L150.85-28.42L150.85-28.42Q150.46-26.82 150.34-26.11L150.34-26.11L150.34-26.11Q149.12-21.44 148.35-16.80L148.35-16.80L148.35-16.80Q147.58-12.16 147.46-5.50L147.46-5.50L147.46-5.50Q147.46-2.94 148.29-2.94L148.29-2.94L148.29-2.94Q149.50-2.94 151.55-5.79L151.55-5.79L151.55-5.79Q153.60-8.64 156.61-14.46L156.61-14.46L156.61-14.46Q159.55-20.80 162.24-25.89L162.24-25.89L162.24-25.89Q164.93-30.98 166.46-30.98L166.46-30.98L166.46-30.98Q167.55-30.98 167.55-29.76L167.55-29.76L167.55-29.76Q167.55-28.86 165.95-24.70L165.95-24.70L165.95-24.70Q164.74-21.57 164.35-20.16L164.35-20.16L164.35-20.16Q162.11-12.48 161.54-3.39L161.54-3.39L161.54-3.39Q161.54-2.56 161.70-2.14L161.70-2.14L161.70-2.14Q161.86-1.73 162.27-1.28L162.27-1.28L162.27-1.28Q162.69-0.83 162.69-0.19L162.69-0.19L162.69-0.19Q162.69 0.45 161.98 0.99L161.98 0.99L161.98 0.99Q161.28 1.54 160.64 1.54L160.64 1.54ZM172.61 1.02L172.61 1.02Q171.71 1.02 171.71-0.13L171.71-0.13L173.18-7.74L175.87-21.25L175.87-21.25Q177.66-30.21 177.66-30.21L177.66-30.21L177.66-30.21Q177.92-31.62 178.37-32.26L178.37-32.26L178.37-32.26Q178.82-32.90 179.52-32.90L179.52-32.90L179.52-32.90Q180.16-32.90 180.51-32.58L180.51-32.58L180.51-32.58Q180.86-32.26 180.86-31.42L180.86-31.42L180.86-31.42Q180.86-29.95 179.97-26.94L179.97-26.94L179.97-26.94Q179.52-25.47 179.33-24.45L179.33-24.45L179.33-24.45Q179.07-23.55 178.75-22.43L178.75-22.43L178.75-22.43Q178.43-21.31 178.05-19.84L178.05-19.84L178.05-19.84Q179.78-23.74 181.31-26.08L181.31-26.08L181.31-26.08Q182.85-28.42 185.15-30.53L185.15-30.53L185.15-30.53Q187.33-32.38 189.50-32.38L189.50-32.38L189.50-32.38Q191.10-32.38 192.19-31.71L192.19-31.71L192.19-31.71Q193.28-31.04 193.28-30.14L193.28-30.14L193.28-30.14Q193.28-29.44 192.77-29.02L192.77-29.02L192.77-29.02Q192.26-28.61 191.49-28.61L191.49-28.61L191.49-28.61Q190.91-28.61 190.40-28.86L190.40-28.86L190.40-28.86Q190.02-29.18 189.38-29.18L189.38-29.18L189.38-29.18Q188.54-29.18 186.94-28.03L186.94-28.03L186.94-28.03Q183.94-25.86 181.86-22.30L181.86-22.30L181.86-22.30Q179.78-18.75 178.59-15.14L178.59-15.14L178.59-15.14Q177.41-11.52 176.06-6.40L176.06-6.40L175.49-4.03L175.49-4.03Q174.53 1.02 172.61 1.02L172.61 1.02ZM213.82 3.52L213.82 3.52Q212.54 3.52 212.54 2.05L212.54 2.05L212.54 2.05Q212.54 1.60 212.67 0.45L212.67 0.45L212.67 0.45Q211.58 0.19 210.88 0.13L210.88 0.13L210.88 0.13Q208.70-0.26 207.68-0.70L207.68-0.70L207.68-0.70Q206.66-1.15 206.66-2.37L206.66-2.37L206.66-2.37Q206.66-2.69 207.01-3.10L207.01-3.10L207.01-3.10Q207.36-3.52 207.68-3.52L207.68-3.52L207.68-3.52Q208.51-3.52 209.54-3.01L209.54-3.01L209.54-3.01Q210.37-2.62 211.07-2.43L211.07-2.43L211.07-2.43Q211.78-2.24 213.06-2.24L213.06-2.24L213.06-2.24Q220.35-37.76 226.94-57.34L226.94-57.34L226.94-57.34Q224.83-56.64 223.14-55.78L223.14-55.78L223.14-55.78Q221.44-54.91 221.18-54.78L221.18-54.78L221.18-54.78Q219.52-53.89 219.20-53.89L219.20-53.89L219.20-53.89Q218.05-53.89 218.05-55.04L218.05-55.04L218.05-55.04Q218.05-55.94 218.88-56.51L218.88-56.51L218.88-56.51Q223.62-59.46 228.16-60.67L228.16-60.67L228.16-60.67Q228.67-61.50 229.50-61.50L229.50-61.50L229.50-61.50Q230.02-61.50 230.21-61.18L230.21-61.18L230.21-61.18Q233.60-61.89 236.35-61.89L236.35-61.89L236.35-61.89Q244.35-61.89 248.67-56.45L248.67-56.45L248.67-56.45Q252.99-51.01 252.99-40.19L252.99-40.19L252.99-40.19Q252.99-23.36 245.92-13.70L245.92-13.70L245.92-13.70Q238.85-4.03 227.58-0.83L227.58-0.83L227.58-0.83Q222.46 0.64 215.68 0.64L215.68 0.64L215.68 0.64Q215.55 2.11 215.10 2.82L215.10 2.82L215.10 2.82Q214.66 3.52 213.82 3.52L213.82 3.52ZM216.19-2.11L216.19-2.11Q227.58-2.11 235.17-7.23L235.17-7.23L235.17-7.23Q242.75-12.35 246.37-20.80L246.37-20.80L246.37-20.80Q249.98-29.25 249.98-39.42L249.98-39.42L249.98-39.42Q249.98-49.34 246.08-54.18L246.08-54.18L246.08-54.18Q242.18-59.01 235.65-59.01L235.65-59.01L235.65-59.01Q233.15-59.01 229.95-58.18L229.95-58.18L229.95-58.18Q224.70-41.66 219.71-18.88L219.71-18.88L219.71-18.88Q218.24-12.35 216.19-2.11L216.19-2.11ZM258.18 0.64L258.18 0.64Q256 0.64 256-2.88L256-2.88L256-2.88Q256-3.78 256.32-4.48L256.32-4.48L256.32-4.48Q256.64-5.57 256.90-6.98L256.90-6.98L257.86-11.26L259.14-16.90L259.14-16.90Q259.78-20.03 260.67-23.94L260.67-23.94L260.67-23.94Q260.80-24.32 260.93-25.22L260.93-25.22L260.93-25.22Q261.57-27.97 261.57-28.42L261.57-28.42L261.57-29.06L261.57-29.06Q261.57-29.57 261.12-31.17L261.12-31.17L261.12-31.17Q261.12-31.94 261.66-32.58L261.66-32.58L261.66-32.58Q262.21-33.22 262.98-33.22L262.98-33.22L262.98-33.22Q263.68-33.22 264.19-32.26L264.19-32.26L264.19-32.26Q264.70-31.30 264.70-30.14L264.70-30.14L264.70-30.14Q264.70-28.86 261.76-16.32L261.76-16.32L261.76-16.32Q258.82-3.78 258.82-3.01L258.82-3.01L258.82-3.01Q258.82-2.30 259.46-2.30L259.46-2.30L259.46-2.30Q259.78-2.30 260.61-3.14L260.61-3.14L260.61-3.14Q261.38-3.90 261.89-3.90L261.89-3.90L261.89-3.90Q262.91-3.90 262.91-2.62L262.91-2.62L262.91-2.62Q262.91-1.86 262.02-1.09L262.02-1.09L262.02-1.09Q261.12-0.32 259.97 0.16L259.97 0.16L259.97 0.16Q258.82 0.64 258.18 0.64L258.18 0.64ZM264.64-38.02L264.64-38.02Q263.62-38.02 263.10-38.27L263.10-38.27L262.85-38.27L262.85-38.27Q260.99-38.27 260.99-40.45L260.99-40.45L260.99-40.45Q260.99-41.54 261.92-42.43L261.92-42.43L261.92-42.43Q262.85-43.33 263.94-43.33L263.94-43.33L263.94-43.33Q265.02-43.33 265.98-42.56L265.98-42.56L265.98-42.56Q267.07-41.47 267.07-40.45L267.07-40.45L267.07-40.45Q267.07-39.49 266.34-38.75L266.34-38.75L266.34-38.75Q265.60-38.02 264.64-38.02L264.64-38.02ZM269.63-4.74L269.63-4.74Q269.63-5.57 270.08-5.89L270.08-5.89L270.08-5.89Q270.53-6.21 271.23-6.34L271.23-6.34L271.23-6.34Q271.81-6.34 272.16-5.95L272.16-5.95L272.16-5.95Q272.51-5.57 273.02-4.74L273.02-4.74L273.02-4.74Q273.54-3.84 273.89-3.49L273.89-3.49L273.89-3.49Q274.24-3.14 275.14-3.14L275.14-3.14L275.14-3.14Q277.18-3.14 278.50-4.42L278.50-4.42L278.50-4.42Q279.81-5.70 279.81-7.42L279.81-7.42L279.81-7.42Q279.81-9.28 279.04-11.33L279.04-11.33L279.04-11.33Q278.27-13.38 276.67-16.45L276.67-16.45L276.67-16.45Q273.47-22.21 273.47-25.60L273.47-25.60L273.47-25.60Q273.47-28.99 275.17-31.04L275.17-31.04L275.17-31.04Q276.86-33.09 279.81-33.09L279.81-33.09L279.81-33.09Q281.86-33.09 283.71-31.94L283.71-31.94L283.71-31.94Q285.57-30.78 285.57-29.06L285.57-29.06L285.57-29.06Q285.57-27.20 284.03-27.20L284.03-27.20L284.03-27.20Q283.58-27.20 283.30-27.46L283.30-27.46L283.30-27.46Q283.01-27.71 282.75-28.06L282.75-28.06L282.75-28.06Q282.50-28.42 282.37-28.54L282.37-28.54L282.37-28.54Q281.22-29.89 279.81-29.89L279.81-29.89L279.81-29.89Q276.67-29.89 276.67-26.24L276.67-26.24L276.67-26.24Q276.67-24.26 277.44-22.21L277.44-22.21L277.44-22.21Q278.21-20.16 279.74-17.02L279.74-17.02L279.74-17.02Q281.22-13.95 281.98-11.90L281.98-11.90L281.98-11.90Q282.75-9.86 282.75-8L282.75-8L282.75-8Q282.75-4.74 280.77-2.50L280.77-2.50L280.77-2.50Q278.78-0.26 275.20 0.19L275.20 0.19L275.20 0.19Q272.96 0.19 271.30-1.38L271.30-1.38L271.30-1.38Q269.63-2.94 269.63-4.74L269.63-4.74ZM295.74 0.77L295.74 0.77Q292.67 0.77 290.91-1.50L290.91-1.50L290.91-1.50Q289.15-3.78 289.15-6.98L289.15-6.98L289.15-6.98Q289.15-12.61 291.23-18.62L291.23-18.62L291.23-18.62Q293.31-24.64 296.70-28.67L296.70-28.67L296.70-28.67Q300.03-32.70 303.87-32.70L303.87-32.70L303.87-32.70Q306.62-32.70 307.46-30.72L307.46-30.72L307.46-30.72Q307.65-30.40 307.78-30.05L307.78-30.05L307.78-30.05Q307.90-29.70 308.03-29.38L308.03-29.38L308.03-29.38Q308.35-28.48 308.67-28.35L308.67-28.35L308.67-28.35Q308.93-27.71 308.93-27.39L308.93-27.39L308.93-27.39Q308.93-26.82 308.38-26.30L308.38-26.30L308.38-26.30Q307.84-25.79 307.20-25.79L307.20-25.79L307.20-25.79Q305.86-25.79 305.47-27.78L305.47-27.78L305.47-27.78Q305.09-29.76 303.36-29.76L303.36-29.76L303.36-29.76Q301.06-29.76 298.50-26.21L298.50-26.21L298.50-26.21Q295.94-22.66 294.08-17.22L294.08-17.22L294.08-17.22Q292.29-12.10 292.29-8.06L292.29-8.06L292.29-8.06Q292.29-2.37 296.45-2.37L296.45-2.37L296.45-2.37Q298.56-2.37 300.35-4.35L300.35-4.35L300.35-4.35Q300.54-4.61 301.06-5.22L301.06-5.22L301.06-5.22Q301.57-5.82 302.02-6.11L302.02-6.11L302.02-6.11Q302.46-6.40 302.85-6.40L302.85-6.40L302.85-6.40Q304.06-6.40 304.06-5.31L304.06-5.31L304.06-5.31Q304.06-4.03 302.85-2.59L302.85-2.59L302.85-2.59Q301.63-1.15 299.71-0.19L299.71-0.19L299.71-0.19Q297.79 0.77 295.74 0.77L295.74 0.77ZM317.44 0.58L317.44 0.58Q314.11 0.58 312.48-2.05L312.48-2.05L312.48-2.05Q310.85-4.67 310.85-8.32L310.85-8.32L310.85-8.32Q310.85-14.14 312.80-19.62L312.80-19.62L312.80-19.62Q314.75-25.09 318.14-28.67L318.14-28.67L318.14-28.67Q321.41-32.32 325.50-32.32L325.50-32.32L325.50-32.32Q331.39-32.32 331.39-23.36L331.39-23.36L331.39-23.36Q331.39-18.88 329.92-14.21L329.92-14.21L329.92-14.21Q328.45-9.54 326.11-5.89L326.11-5.89L326.11-5.89Q323.78-2.24 321.28-0.64L321.28-0.64L321.28-0.64Q319.36 0.58 317.44 0.58L317.44 0.58ZM317.95-2.30L317.95-2.30Q319.94-2.30 322.40-5.76L322.40-5.76L322.40-5.76Q324.86-9.22 326.53-14.34L326.53-14.34L326.53-14.34Q328.26-19.46 328.26-23.04L328.26-23.04L328.26-23.04Q328.26-26.75 327.81-27.65L327.81-27.65L327.81-27.65Q327.42-28.61 326.85-28.99L326.85-28.99L326.85-28.99Q326.27-29.38 325.06-29.38L325.06-29.38L325.06-29.38Q323.71-29.38 322.24-28.35L322.24-28.35L322.24-28.35Q319.30-26.50 317.12-21.95L317.12-21.95L317.12-21.95Q313.73-15.17 313.73-8.77L313.73-8.77L313.73-8.77Q313.73-4.42 316.22-2.75L316.22-2.75L316.22-2.75Q317.12-2.30 317.95-2.30L317.95-2.30ZM336.77 1.02L336.77 1.02Q335.87 1.02 335.87-0.13L335.87-0.13L337.34-7.74L340.03-21.25L340.03-21.25Q341.82-30.21 341.82-30.21L341.82-30.21L341.82-30.21Q342.08-31.62 342.53-32.26L342.53-32.26L342.53-32.26Q342.98-32.90 343.68-32.90L343.68-32.90L343.68-32.90Q344.32-32.90 344.67-32.58L344.67-32.58L344.67-32.58Q345.02-32.26 345.02-31.42L345.02-31.42L345.02-31.42Q345.02-29.95 344.13-26.94L344.13-26.94L344.13-26.94Q343.68-25.47 343.49-24.45L343.49-24.45L343.49-24.45Q343.23-23.55 342.91-22.43L342.91-22.43L342.91-22.43Q342.59-21.31 342.21-19.84L342.21-19.84L342.21-19.84Q343.94-23.74 345.47-26.08L345.47-26.08L345.47-26.08Q347.01-28.42 349.31-30.53L349.31-30.53L349.31-30.53Q351.49-32.38 353.66-32.38L353.66-32.38L353.66-32.38Q355.26-32.38 356.35-31.71L356.35-31.71L356.35-31.71Q357.44-31.04 357.44-30.14L357.44-30.14L357.44-30.14Q357.44-29.44 356.93-29.02L356.93-29.02L356.93-29.02Q356.42-28.61 355.65-28.61L355.65-28.61L355.65-28.61Q355.07-28.61 354.56-28.86L354.56-28.86L354.56-28.86Q354.18-29.18 353.54-29.18L353.54-29.18L353.54-29.18Q352.70-29.18 351.10-28.03L351.10-28.03L351.10-28.03Q348.10-25.86 346.02-22.30L346.02-22.30L346.02-22.30Q343.94-18.75 342.75-15.14L342.75-15.14L342.75-15.14Q341.57-11.52 340.22-6.40L340.22-6.40L339.65-4.03L339.65-4.03Q338.69 1.02 336.77 1.02L336.77 1.02ZM374.27 1.15L374.27 1.15Q373.50 1.15 372.90-0.67L372.90-0.67L372.90-0.67Q372.29-2.50 372.29-4.03L372.29-4.03L372.29-4.03Q372.29-5.31 372.67-7.04L372.67-7.04L372.67-7.04Q371.33-3.07 369.28-1.25L369.28-1.25L369.28-1.25Q367.23 0.58 364.03 0.58L364.03 0.58L364.03 0.58Q361.02 0.58 359.49-1.89L359.49-1.89L359.49-1.89Q357.95-4.35 357.95-7.42L357.95-7.42L357.95-7.42Q357.95-16.96 361.54-23.62L361.54-23.62L361.54-23.62Q363.26-26.62 364.54-28.13L364.54-28.13L364.54-28.13Q365.82-29.63 367.87-30.98L367.87-30.98L367.87-30.98Q369.86-32.32 372.86-32.32L372.86-32.32L372.86-32.32Q375.81-32.32 377.15-29.44L377.15-29.44L378.24-34.24L378.24-34.24Q380.35-43.39 381.76-50.30L381.76-50.30L382.91-56.06L383.62-59.39L383.62-59.39Q383.62-60.16 384.16-60.77L384.16-60.77L384.16-60.77Q384.70-61.38 385.34-61.38L385.34-61.38L385.34-61.38Q386.69-61.38 386.69-59.90L386.69-59.90L386.69-59.65L386.69-59.65Q386.69-57.92 384.51-48L384.51-48L384.51-48Q382.27-37.70 381.63-33.73L381.63-33.73L381.63-33.73Q380.93-29.63 379.14-22.21L379.14-22.21L378.24-18.69L378.24-18.69Q376.77-13.06 376.10-9.79L376.10-9.79L376.10-9.79Q375.42-6.53 375.49-4.22L375.49-4.22L375.49-4.22Q375.49-2.50 376.06-0.64L376.06-0.64L376.06-0.64Q376.00 0.06 375.39 0.61L375.39 0.61L375.39 0.61Q374.78 1.15 374.27 1.15L374.27 1.15ZM364.61-2.56L364.61-2.56Q366.08-2.56 368.80-6.30L368.80-6.30L368.80-6.30Q371.52-10.05 373.57-15.30L373.57-15.30L373.57-15.30Q375.62-20.54 375.62-24.96L375.62-24.96L375.62-24.96Q375.62-26.69 374.62-28.16L374.62-28.16L374.62-28.16Q373.63-29.63 372.03-29.63L372.03-29.63L372.03-29.63Q369.09-29.63 366.53-25.95L366.53-25.95L366.53-25.95Q363.97-22.27 362.37-16.77L362.37-16.77L362.37-16.77Q360.83-11.58 360.83-8.06L360.83-8.06L360.83-8.06Q360.83-5.70 361.76-4.13L361.76-4.13L361.76-4.13Q362.69-2.56 364.61-2.56L364.61-2.56ZM390.91-10.24L390.91-10.24Q389.95-10.24 389.82-11.52L389.82-11.52L389.82-11.52Q395.71-36.93 397.95-56.19L397.95-56.19L397.95-56.19Q398.34-59.20 398.91-62.53L398.91-62.53L398.91-62.53Q399.62-65.73 399.68-68.86L399.68-68.86L399.68-68.86Q399.87-69.50 400.42-69.95L400.42-69.95L400.42-69.95Q400.96-70.40 401.54-70.40L401.54-70.40L401.54-70.40Q402.30-70.40 402.62-69.31L402.62-69.31L402.62-69.31Q402.50-66.56 401.79-62.53L401.79-62.53L401.79-62.53Q400.96-57.34 400.32-51.78L400.32-51.78L400.32-51.78Q399.62-45.25 397.47-33.95L397.47-33.95L397.47-33.95Q395.33-22.66 392.70-11.52L392.70-11.52L392.70-11.52Q392.00-10.24 390.91-10.24L390.91-10.24ZM389.89 3.14L389.89 3.14Q389.38 3.14 389.06 2.82L389.06 2.82L389.06 2.82Q388.74 2.50 388.74 2.05L388.74 2.05L388.74 2.05Q388.74 1.60 388.80 1.47L388.80 1.47L388.80 1.47Q387.52 0.96 387.52-0.38L387.52-0.38L387.52-0.38Q387.52-1.73 388.64-2.69L388.64-2.69L388.64-2.69Q389.76-3.65 390.91-3.65L390.91-3.65L390.91-3.65Q391.94-3.65 392.51-2.98L392.51-2.98L392.51-2.98Q393.09-2.30 393.09-1.15L393.09-1.15L393.09-1.15Q393.09 0.19 392.16 1.66L392.16 1.66L392.16 1.66Q391.23 3.14 389.89 3.14L389.89 3.14Z" fill="#ffd5af"></path></g></g><style>text {
  font-size: 64px;
  font-family: Arial Black;
  dominant-baseline: central;
  text-anchor: middle;
}</style></svg>