<svg width="886.8400390625px" height="288.88001708984376px" xmlns="http://www.w3.org/2000/svg" viewBox="-193.42001953124998 -69.44000854492188 886.8400390625 288.88001708984376" style="background: rgba(89, 104, 134, 0) none repeat scroll 0% 0%;" preserveAspectRatio="xMidYMid"><defs><filter id="editing-hover" x="-100%" y="-100%" width="300%" height="300%"><feFlood flood-color="#052b4a" result="flood"></feFlood><feComposite operator="in" in2="SourceAlpha" in="flood" result="shadow"></feComposite><feOffset dx="-4" dy="-4" in="SourceGraphic" result="offset-1"></feOffset><feOffset dx="4" dy="4" in="shadow" result="offset-2"></feOffset><feMerge><feMergeNode in="offset-2"></feMergeNode><feMergeNode in="offset-1"></feMergeNode></feMerge></filter></defs><g filter="url(#editing-hover)"><g transform="translate(-64.58531332015991, 132.75000190734863)"><path d="M14.50 1.30L14.50 1.30Q4.40 1.30-1-10.30L-1-10.30L-1-10.30Q-3.90-16.60-3.90-17.90L-3.90-17.90L-3.90-17.90Q-3.90-19.20-3.15-20.15L-3.15-20.15L-3.15-20.15Q-2.40-21.10-1.60-21.10L-1.60-21.10L-1.60-21.10Q0.10-21.10 0.40-19.80L0.40-19.80L0.40-19.80Q2.20-12.60 6.20-7.80L6.20-7.80L6.20-7.80Q10.20-3 16.20-3L16.20-3L16.20-3Q25.90-3 31.25-12.35L31.25-12.35L31.25-12.35Q36.60-21.70 39.80-37.10L39.80-37.10L51.20-91.20L51.20-91.20Q47.50-89.20 43.90-89.20L43.90-89.20L43.90-89.20Q40.70-89.20 33.50-91L33.50-91L33.50-91Q28.70-92.30 26.10-92.50L26.10-92.50L26.10-92.50Q24.70-93.10 24.70-94.10L24.70-94.10L24.70-94.10Q24.70-95.10 25.55-96L25.55-96L25.55-96Q26.40-96.90 27.50-97.10L27.50-97.10L27.50-97.10Q29.20-96.90 34-95.70L34-95.70L34-95.70Q41-93.90 44-93.90L44-93.90L44-93.90Q47.40-93.90 50.60-95.80L50.60-95.80L50.60-95.80Q51.50-96.30 52.50-96.25L52.50-96.25L52.50-96.25Q53.50-96.20 54.20-96.20L54.20-96.20L54.20-96.20Q55.60-96.20 56.10-94.50L56.10-94.50L56.10-94.50Q51.50-77.40 43.70-33.70L43.70-33.70L43.70-33.70Q40.40-17 33.75-7.85L33.75-7.85L33.75-7.85Q27.10 1.30 14.50 1.30L14.50 1.30ZM66.90 0.90L66.90 0.90Q61.70 0.90 59.15-3.20L59.15-3.20L59.15-3.20Q56.60-7.30 56.60-13L56.60-13L56.60-13Q56.60-22.10 59.65-30.65L59.65-30.65L59.65-30.65Q62.70-39.20 68-44.80L68-44.80L68-44.80Q73.10-50.50 79.50-50.50L79.50-50.50L79.50-50.50Q88.70-50.50 88.70-36.50L88.70-36.50L88.70-36.50Q88.70-29.50 86.40-22.20L86.40-22.20L86.40-22.20Q84.10-14.90 80.45-9.20L80.45-9.20L80.45-9.20Q76.80-3.50 72.90-1L72.90-1L72.90-1Q69.90 0.90 66.90 0.90L66.90 0.90ZM67.70-3.60L67.70-3.60Q70.80-3.60 74.65-9L74.65-9L74.65-9Q78.50-14.40 81.10-22.40L81.10-22.40L81.10-22.40Q83.80-30.40 83.80-36L83.80-36L83.80-36Q83.80-41.80 83.10-43.20L83.10-43.20L83.10-43.20Q82.50-44.70 81.60-45.30L81.60-45.30L81.60-45.30Q80.70-45.90 78.80-45.90L78.80-45.90L78.80-45.90Q76.70-45.90 74.40-44.30L74.40-44.30L74.40-44.30Q69.80-41.40 66.40-34.30L66.40-34.30L66.40-34.30Q61.10-23.70 61.10-13.70L61.10-13.70L61.10-13.70Q61.10-6.90 65-4.30L65-4.30L65-4.30Q66.40-3.60 67.70-3.60L67.70-3.60ZM98.20 1L98.20 1Q94.80 1 94.80-4.50L94.80-4.50L94.80-4.50Q94.80-5.90 95.30-7L95.30-7L95.30-7Q95.80-8.70 96.20-10.90L96.20-10.90L97.70-17.60L99.70-26.40L99.70-26.40Q100.70-31.30 102.10-37.40L102.10-37.40L102.10-37.40Q102.30-38 102.50-39.40L102.50-39.40L102.50-39.40Q103.50-43.70 103.50-44.40L103.50-44.40L103.50-45.40L103.50-45.40Q103.50-46.20 102.80-48.70L102.80-48.70L102.80-48.70Q102.80-49.90 103.65-50.90L103.65-50.90L103.65-50.90Q104.50-51.90 105.70-51.90L105.70-51.90L105.70-51.90Q106.80-51.90 107.60-50.40L107.60-50.40L107.60-50.40Q108.40-48.90 108.40-47.10L108.40-47.10L108.40-47.10Q108.40-45.10 103.80-25.50L103.80-25.50L103.80-25.50Q99.20-5.90 99.20-4.70L99.20-4.70L99.20-4.70Q99.20-3.60 100.20-3.60L100.20-3.60L100.20-3.60Q100.70-3.60 102-4.90L102-4.90L102-4.90Q103.20-6.10 104-6.10L104-6.10L104-6.10Q105.60-6.10 105.60-4.10L105.60-4.10L105.60-4.10Q105.60-2.90 104.20-1.70L104.20-1.70L104.20-1.70Q102.80-0.50 101 0.25L101 0.25L101 0.25Q99.20 1 98.20 1L98.20 1ZM108.30-59.40L108.30-59.40Q106.70-59.40 105.90-59.80L105.90-59.80L105.50-59.80L105.50-59.80Q102.60-59.80 102.60-63.20L102.60-63.20L102.60-63.20Q102.60-64.90 104.05-66.30L104.05-66.30L104.05-66.30Q105.50-67.70 107.20-67.70L107.20-67.70L107.20-67.70Q108.90-67.70 110.40-66.50L110.40-66.50L110.40-66.50Q112.10-64.80 112.10-63.20L112.10-63.20L112.10-63.20Q112.10-61.70 110.95-60.55L110.95-60.55L110.95-60.55Q109.80-59.40 108.30-59.40L108.30-59.40ZM144.20 0.60L144.20 0.60Q142.60 0.60 141.90 0L141.90 0L141.90 0Q141.20-0.60 141.40-2.10L141.40-2.10L146.30-31.30L146.30-31.30Q147.20-36.70 147.20-39.60L147.20-39.60L147.20-39.60Q147.20-44.40 144.50-44.40L144.50-44.40L144.50-44.40Q141.20-44.40 135.45-32.95L135.45-32.95L135.45-32.95Q129.70-21.50 123.60-7.10L123.60-7.10L122.20-3.90L122.20-3.90Q120.40 0 118.60 0L118.60 0L118.60 0Q117.60 0 117.35-0.45L117.35-0.45L117.35-0.45Q117.10-0.90 117.10-2.40L117.10-2.40L117.10-2.40Q117.10-3.90 121.05-25.50L121.05-25.50L121.05-25.50Q125.00-47.10 125.60-48.20L125.60-48.20L125.60-48.20Q126.20-49.40 126.65-49.70L126.65-49.70L126.65-49.70Q127.10-50 128.40-50L128.40-50L128.40-50Q129.60-50 130.35-49.10L130.35-49.10L130.35-49.10Q131.10-48.20 131.10-47.30L131.10-47.30L131.10-47.30Q131.10-46.70 130.10-43.40L130.10-43.40L130.10-43.40Q127.10-33.20 125.40-23.60L125.40-23.60L124.40-17.70L124.40-17.70Q126.10-21.30 126.90-23.30L126.90-23.30L126.90-23.30Q129.70-29.80 132.05-34.70L132.05-34.70L132.05-34.70Q134.40-39.60 137.30-43.80L137.30-43.80L137.30-43.80Q141.70-50.10 145.50-50.10L145.50-50.10L145.50-50.10Q152.20-50.10 152.20-39.30L152.20-39.30L152.20-39.30Q152.20-37 151.60-33.40L151.60-33.40L151.60-33.40Q151-29.80 150.30-26L150.30-26L150.30-26Q148.90-18.70 148.50-16L148.50-16L147.80-11.40L147.80-11.40Q146.90-5.20 146.20-2.30L146.20-2.30L146.20-2.30Q145.50 0.60 144.20 0.60L144.20 0.60ZM197.00 0.90L197.00 0.90Q191.80 0.90 189.25-3.20L189.25-3.20L189.25-3.20Q186.70-7.30 186.70-13L186.70-13L186.70-13Q186.70-22.10 189.75-30.65L189.75-30.65L189.75-30.65Q192.80-39.20 198.10-44.80L198.10-44.80L198.10-44.80Q203.20-50.50 209.60-50.50L209.60-50.50L209.60-50.50Q218.80-50.50 218.80-36.50L218.80-36.50L218.80-36.50Q218.80-29.50 216.50-22.20L216.50-22.20L216.50-22.20Q214.20-14.90 210.55-9.20L210.55-9.20L210.55-9.20Q206.90-3.50 203.00-1L203.00-1L203.00-1Q200.00 0.90 197.00 0.90L197.00 0.90ZM197.80-3.60L197.80-3.60Q200.90-3.60 204.75-9L204.75-9L204.75-9Q208.60-14.40 211.20-22.40L211.20-22.40L211.20-22.40Q213.90-30.40 213.90-36L213.90-36L213.90-36Q213.90-41.80 213.20-43.20L213.20-43.20L213.20-43.20Q212.60-44.70 211.70-45.30L211.70-45.30L211.70-45.30Q210.80-45.90 208.90-45.90L208.90-45.90L208.90-45.90Q206.80-45.90 204.50-44.30L204.50-44.30L204.50-44.30Q199.90-41.40 196.50-34.30L196.50-34.30L196.50-34.30Q191.20-23.70 191.20-13.70L191.20-13.70L191.20-13.70Q191.20-6.90 195.10-4.30L195.10-4.30L195.10-4.30Q196.50-3.60 197.80-3.60L197.80-3.60ZM251 2.40L251 2.40Q248 2.40 248-5.60L248-5.60L248-5.60Q248-9.80 248.70-14L248.70-14L248.70-14Q249.40-18.20 250.90-24.90L250.90-24.90L251.70-28.60L251.70-28.60Q250-25.30 247.70-20.20L247.70-20.20L247.70-20.20Q243.60-11.80 239.45-5.50L239.45-5.50L239.45-5.50Q235.30 0.80 231.20 0.80L231.20 0.80L231.20 0.80Q225.80 0.80 225.80-9.90L225.80-9.90L225.80-9.90Q225.80-23.20 230.10-41L230.10-41L231.70-47.10L231.70-47.10Q232.60-50.40 234.80-50.40L234.80-50.40L234.80-50.40Q236-50.40 236.50-48.70L236.50-48.70L236.50-48.70Q236.30-46.90 235.70-44.40L235.70-44.40L235.70-44.40Q235.10-41.90 234.90-40.80L234.90-40.80L234.90-40.80Q233-33.50 231.80-26.25L231.80-26.25L231.80-26.25Q230.60-19 230.40-8.60L230.40-8.60L230.40-8.60Q230.40-4.60 231.70-4.60L231.70-4.60L231.70-4.60Q233.60-4.60 236.80-9.05L236.80-9.05L236.80-9.05Q240-13.50 244.70-22.60L244.70-22.60L244.70-22.60Q249.30-32.50 253.50-40.45L253.50-40.45L253.50-40.45Q257.70-48.40 260.10-48.40L260.10-48.40L260.10-48.40Q261.80-48.40 261.80-46.50L261.80-46.50L261.80-46.50Q261.80-45.10 259.30-38.60L259.30-38.60L259.30-38.60Q257.40-33.70 256.80-31.50L256.80-31.50L256.80-31.50Q253.30-19.50 252.40-5.30L252.40-5.30L252.40-5.30Q252.40-4 252.65-3.35L252.65-3.35L252.65-3.35Q252.90-2.70 253.55-2L253.55-2L253.55-2Q254.20-1.30 254.20-0.30L254.20-0.30L254.20-0.30Q254.20 0.70 253.10 1.55L253.10 1.55L253.10 1.55Q252 2.40 251 2.40L251 2.40ZM269.70 1.60L269.70 1.60Q268.30 1.60 268.30-0.20L268.30-0.20L270.60-12.10L274.80-33.20L274.80-33.20Q277.60-47.20 277.60-47.20L277.60-47.20L277.60-47.20Q278-49.40 278.70-50.40L278.70-50.40L278.70-50.40Q279.40-51.40 280.50-51.40L280.50-51.40L280.50-51.40Q281.50-51.40 282.05-50.90L282.05-50.90L282.05-50.90Q282.60-50.40 282.60-49.10L282.60-49.10L282.60-49.10Q282.60-46.80 281.20-42.10L281.20-42.10L281.20-42.10Q280.50-39.80 280.20-38.20L280.20-38.20L280.20-38.20Q279.80-36.80 279.30-35.05L279.30-35.05L279.30-35.05Q278.80-33.30 278.20-31L278.20-31L278.20-31Q280.90-37.10 283.30-40.75L283.30-40.75L283.30-40.75Q285.70-44.40 289.30-47.70L289.30-47.70L289.30-47.70Q292.70-50.60 296.10-50.60L296.10-50.60L296.10-50.60Q298.60-50.60 300.30-49.55L300.30-49.55L300.30-49.55Q302-48.50 302-47.10L302-47.10L302-47.10Q302-46 301.20-45.35L301.20-45.35L301.20-45.35Q300.40-44.70 299.20-44.70L299.20-44.70L299.20-44.70Q298.30-44.70 297.50-45.10L297.50-45.10L297.50-45.10Q296.90-45.60 295.90-45.60L295.90-45.60L295.90-45.60Q294.60-45.60 292.10-43.80L292.10-43.80L292.10-43.80Q287.40-40.40 284.15-34.85L284.15-34.85L284.15-34.85Q280.90-29.30 279.05-23.65L279.05-23.65L279.05-23.65Q277.20-18 275.10-10L275.10-10L274.20-6.30L274.20-6.30Q272.70 1.60 269.70 1.60L269.70 1.60ZM334.10 5.50L334.10 5.50Q332.10 5.50 332.10 3.20L332.10 3.20L332.10 3.20Q332.10 2.50 332.30 0.70L332.30 0.70L332.30 0.70Q330.60 0.30 329.50 0.20L329.50 0.20L329.50 0.20Q326.10-0.40 324.50-1.10L324.50-1.10L324.50-1.10Q322.90-1.80 322.90-3.70L322.90-3.70L322.90-3.70Q322.90-4.20 323.45-4.85L323.45-4.85L323.45-4.85Q324-5.50 324.50-5.50L324.50-5.50L324.50-5.50Q325.80-5.50 327.40-4.70L327.40-4.70L327.40-4.70Q328.70-4.10 329.80-3.80L329.80-3.80L329.80-3.80Q330.90-3.50 332.90-3.50L332.90-3.50L332.90-3.50Q344.30-59 354.60-89.60L354.60-89.60L354.60-89.60Q351.30-88.50 348.65-87.15L348.65-87.15L348.65-87.15Q346-85.80 345.60-85.60L345.60-85.60L345.60-85.60Q343-84.20 342.50-84.20L342.50-84.20L342.50-84.20Q340.70-84.20 340.70-86L340.70-86L340.70-86Q340.70-87.40 342-88.30L342-88.30L342-88.30Q349.40-92.90 356.50-94.80L356.50-94.80L356.50-94.80Q357.30-96.10 358.60-96.10L358.60-96.10L358.60-96.10Q359.40-96.10 359.70-95.60L359.70-95.60L359.70-95.60Q365-96.70 369.30-96.70L369.30-96.70L369.30-96.70Q381.80-96.70 388.55-88.20L388.55-88.20L388.55-88.20Q395.30-79.70 395.30-62.80L395.30-62.80L395.30-62.80Q395.30-36.50 384.25-21.40L384.25-21.40L384.25-21.40Q373.20-6.30 355.60-1.30L355.60-1.30L355.60-1.30Q347.60 1 337 1L337 1L337 1Q336.80 3.30 336.10 4.40L336.10 4.40L336.10 4.40Q335.40 5.50 334.10 5.50L334.10 5.50ZM337.80-3.30L337.80-3.30Q355.60-3.30 367.45-11.30L367.45-11.30L367.45-11.30Q379.30-19.30 384.95-32.50L384.95-32.50L384.95-32.50Q390.60-45.70 390.60-61.60L390.60-61.60L390.60-61.60Q390.60-77.10 384.50-84.65L384.50-84.65L384.50-84.65Q378.40-92.20 368.20-92.20L368.20-92.20L368.20-92.20Q364.30-92.20 359.30-90.90L359.30-90.90L359.30-90.90Q351.10-65.10 343.30-29.50L343.30-29.50L343.30-29.50Q341-19.30 337.80-3.30L337.80-3.30ZM403.40 1L403.40 1Q400.00 1 400.00-4.50L400.00-4.50L400.00-4.50Q400.00-5.90 400.50-7L400.50-7L400.50-7Q401.00-8.70 401.40-10.90L401.40-10.90L402.90-17.60L404.90-26.40L404.90-26.40Q405.90-31.30 407.30-37.40L407.30-37.40L407.30-37.40Q407.50-38 407.70-39.40L407.70-39.40L407.70-39.40Q408.70-43.70 408.70-44.40L408.70-44.40L408.70-45.40L408.70-45.40Q408.70-46.20 408.00-48.70L408.00-48.70L408.00-48.70Q408.00-49.90 408.85-50.90L408.85-50.90L408.85-50.90Q409.70-51.90 410.90-51.90L410.90-51.90L410.90-51.90Q412.00-51.90 412.80-50.40L412.80-50.40L412.80-50.40Q413.60-48.90 413.60-47.10L413.60-47.10L413.60-47.10Q413.60-45.10 409.00-25.50L409.00-25.50L409.00-25.50Q404.40-5.90 404.40-4.70L404.40-4.70L404.40-4.70Q404.40-3.60 405.40-3.60L405.40-3.60L405.40-3.60Q405.90-3.60 407.20-4.90L407.20-4.90L407.20-4.90Q408.40-6.10 409.20-6.10L409.20-6.10L409.20-6.10Q410.80-6.10 410.80-4.10L410.80-4.10L410.80-4.10Q410.80-2.90 409.40-1.70L409.40-1.70L409.40-1.70Q408.00-0.50 406.20 0.25L406.20 0.25L406.20 0.25Q404.40 1 403.40 1L403.40 1ZM413.50-59.40L413.50-59.40Q411.90-59.40 411.10-59.80L411.10-59.80L410.70-59.80L410.70-59.80Q407.80-59.80 407.80-63.20L407.80-63.20L407.80-63.20Q407.80-64.90 409.25-66.30L409.25-66.30L409.25-66.30Q410.70-67.70 412.40-67.70L412.40-67.70L412.40-67.70Q414.10-67.70 415.60-66.50L415.60-66.50L415.60-66.50Q417.30-64.80 417.30-63.20L417.30-63.20L417.30-63.20Q417.30-61.70 416.15-60.55L416.15-60.55L416.15-60.55Q415.00-59.40 413.50-59.40L413.50-59.40ZM421.30-7.40L421.30-7.40Q421.30-8.70 422-9.20L422-9.20L422-9.20Q422.70-9.70 423.80-9.90L423.80-9.90L423.80-9.90Q424.70-9.90 425.25-9.30L425.25-9.30L425.25-9.30Q425.80-8.70 426.60-7.40L426.60-7.40L426.60-7.40Q427.40-6 427.95-5.45L427.95-5.45L427.95-5.45Q428.50-4.90 429.90-4.90L429.90-4.90L429.90-4.90Q433.10-4.90 435.15-6.90L435.15-6.90L435.15-6.90Q437.20-8.90 437.20-11.60L437.20-11.60L437.20-11.60Q437.20-14.50 436-17.70L436-17.70L436-17.70Q434.80-20.90 432.30-25.70L432.30-25.70L432.30-25.70Q427.30-34.70 427.30-40L427.30-40L427.30-40Q427.30-45.30 429.95-48.50L429.95-48.50L429.95-48.50Q432.60-51.70 437.20-51.70L437.20-51.70L437.20-51.70Q440.40-51.70 443.30-49.90L443.30-49.90L443.30-49.90Q446.20-48.10 446.20-45.40L446.20-45.40L446.20-45.40Q446.20-42.50 443.80-42.50L443.80-42.50L443.80-42.50Q443.10-42.50 442.65-42.90L442.65-42.90L442.65-42.90Q442.20-43.30 441.80-43.85L441.80-43.85L441.80-43.85Q441.40-44.40 441.20-44.60L441.20-44.60L441.20-44.60Q439.40-46.70 437.20-46.70L437.20-46.70L437.20-46.70Q432.30-46.70 432.30-41L432.30-41L432.30-41Q432.30-37.90 433.50-34.70L433.50-34.70L433.50-34.70Q434.70-31.50 437.10-26.60L437.10-26.60L437.10-26.60Q439.40-21.80 440.60-18.60L440.60-18.60L440.60-18.60Q441.80-15.40 441.80-12.50L441.80-12.50L441.80-12.50Q441.80-7.40 438.70-3.90L438.70-3.90L438.70-3.90Q435.60-0.40 430 0.30L430 0.30L430 0.30Q426.50 0.30 423.90-2.15L423.90-2.15L423.90-2.15Q421.30-4.60 421.30-7.40L421.30-7.40ZM462.10 1.20L462.10 1.20Q457.30 1.20 454.55-2.35L454.55-2.35L454.55-2.35Q451.80-5.90 451.80-10.90L451.80-10.90L451.80-10.90Q451.80-19.70 455.05-29.10L455.05-29.10L455.05-29.10Q458.30-38.50 463.60-44.80L463.60-44.80L463.60-44.80Q468.80-51.10 474.80-51.10L474.80-51.10L474.80-51.10Q479.10-51.10 480.40-48L480.40-48L480.40-48Q480.70-47.50 480.90-46.95L480.90-46.95L480.90-46.95Q481.10-46.40 481.30-45.90L481.30-45.90L481.30-45.90Q481.80-44.50 482.30-44.30L482.30-44.30L482.30-44.30Q482.70-43.30 482.70-42.80L482.70-42.80L482.70-42.80Q482.70-41.90 481.85-41.10L481.85-41.10L481.85-41.10Q481-40.30 480-40.30L480-40.30L480-40.30Q477.90-40.30 477.30-43.40L477.30-43.40L477.30-43.40Q476.70-46.50 474-46.50L474-46.50L474-46.50Q470.40-46.50 466.40-40.95L466.40-40.95L466.40-40.95Q462.40-35.40 459.50-26.90L459.50-26.90L459.50-26.90Q456.70-18.90 456.70-12.60L456.70-12.60L456.70-12.60Q456.70-3.70 463.20-3.70L463.20-3.70L463.20-3.70Q466.50-3.70 469.30-6.80L469.30-6.80L469.30-6.80Q469.60-7.20 470.40-8.15L470.40-8.15L470.40-8.15Q471.20-9.10 471.90-9.55L471.90-9.55L471.90-9.55Q472.60-10 473.20-10L473.20-10L473.20-10Q475.10-10 475.10-8.30L475.10-8.30L475.10-8.30Q475.10-6.30 473.20-4.05L473.20-4.05L473.20-4.05Q471.30-1.80 468.30-0.30L468.30-0.30L468.30-0.30Q465.30 1.20 462.10 1.20L462.10 1.20ZM496 0.90L496 0.90Q490.80 0.90 488.25-3.20L488.25-3.20L488.25-3.20Q485.70-7.30 485.70-13L485.70-13L485.70-13Q485.70-22.10 488.75-30.65L488.75-30.65L488.75-30.65Q491.80-39.20 497.10-44.80L497.10-44.80L497.10-44.80Q502.20-50.50 508.60-50.50L508.60-50.50L508.60-50.50Q517.80-50.50 517.80-36.50L517.80-36.50L517.80-36.50Q517.80-29.50 515.50-22.20L515.50-22.20L515.50-22.20Q513.20-14.90 509.55-9.20L509.55-9.20L509.55-9.20Q505.90-3.50 502-1L502-1L502-1Q499 0.90 496 0.90L496 0.90ZM496.80-3.60L496.80-3.60Q499.90-3.60 503.75-9L503.75-9L503.75-9Q507.60-14.40 510.20-22.40L510.20-22.40L510.20-22.40Q512.90-30.40 512.90-36L512.90-36L512.90-36Q512.90-41.80 512.20-43.20L512.20-43.20L512.20-43.20Q511.60-44.70 510.70-45.30L510.70-45.30L510.70-45.30Q509.80-45.90 507.90-45.90L507.90-45.90L507.90-45.90Q505.80-45.90 503.50-44.30L503.50-44.30L503.50-44.30Q498.90-41.40 495.50-34.30L495.50-34.30L495.50-34.30Q490.20-23.70 490.20-13.70L490.20-13.70L490.20-13.70Q490.20-6.90 494.10-4.30L494.10-4.30L494.10-4.30Q495.50-3.60 496.80-3.60L496.80-3.60ZM526.20 1.60L526.20 1.60Q524.80 1.60 524.80-0.20L524.80-0.20L527.10-12.10L531.30-33.20L531.30-33.20Q534.10-47.20 534.10-47.20L534.10-47.20L534.10-47.20Q534.50-49.40 535.20-50.40L535.20-50.40L535.20-50.40Q535.90-51.40 537-51.40L537-51.40L537-51.40Q538-51.40 538.55-50.90L538.55-50.90L538.55-50.90Q539.10-50.40 539.10-49.10L539.10-49.10L539.10-49.10Q539.10-46.80 537.70-42.10L537.70-42.10L537.70-42.10Q537-39.80 536.70-38.20L536.70-38.20L536.70-38.20Q536.30-36.80 535.80-35.05L535.80-35.05L535.80-35.05Q535.30-33.30 534.70-31L534.70-31L534.70-31Q537.40-37.10 539.80-40.75L539.80-40.75L539.80-40.75Q542.20-44.40 545.80-47.70L545.80-47.70L545.80-47.70Q549.20-50.60 552.60-50.60L552.60-50.60L552.60-50.60Q555.10-50.60 556.80-49.55L556.80-49.55L556.80-49.55Q558.50-48.50 558.50-47.10L558.50-47.10L558.50-47.10Q558.50-46 557.70-45.35L557.70-45.35L557.70-45.35Q556.90-44.70 555.70-44.70L555.70-44.70L555.70-44.70Q554.80-44.70 554-45.10L554-45.10L554-45.10Q553.40-45.60 552.40-45.60L552.40-45.60L552.40-45.60Q551.10-45.60 548.60-43.80L548.60-43.80L548.60-43.80Q543.90-40.40 540.65-34.85L540.65-34.85L540.65-34.85Q537.40-29.30 535.55-23.65L535.55-23.65L535.55-23.65Q533.70-18 531.60-10L531.60-10L530.70-6.30L530.70-6.30Q529.20 1.60 526.20 1.60L526.20 1.60ZM584.80 1.80L584.80 1.80Q583.60 1.80 582.65-1.05L582.65-1.05L582.65-1.05Q581.70-3.90 581.70-6.30L581.70-6.30L581.70-6.30Q581.70-8.30 582.30-11L582.30-11L582.30-11Q580.20-4.80 577-1.95L577-1.95L577-1.95Q573.80 0.90 568.80 0.90L568.80 0.90L568.80 0.90Q564.10 0.90 561.70-2.95L561.70-2.95L561.70-2.95Q559.30-6.80 559.30-11.60L559.30-11.60L559.30-11.60Q559.30-26.50 564.90-36.90L564.90-36.90L564.90-36.90Q567.60-41.60 569.60-43.95L569.60-43.95L569.60-43.95Q571.60-46.30 574.80-48.40L574.80-48.40L574.80-48.40Q577.90-50.50 582.60-50.50L582.60-50.50L582.60-50.50Q587.20-50.50 589.30-46L589.30-46L591-53.50L591-53.50Q594.30-67.80 596.50-78.60L596.50-78.60L598.30-87.60L599.40-92.80L599.40-92.80Q599.40-94 600.25-94.95L600.25-94.95L600.25-94.95Q601.10-95.90 602.10-95.90L602.10-95.90L602.10-95.90Q604.20-95.90 604.20-93.60L604.20-93.60L604.20-93.20L604.20-93.20Q604.20-90.50 600.80-75L600.80-75L600.80-75Q597.30-58.90 596.30-52.70L596.30-52.70L596.30-52.70Q595.20-46.30 592.40-34.70L592.40-34.70L591-29.20L591-29.20Q588.70-20.40 587.65-15.30L587.65-15.30L587.65-15.30Q586.60-10.20 586.70-6.60L586.70-6.60L586.70-6.60Q586.70-3.90 587.60-1L587.60-1L587.60-1Q587.50 0.10 586.55 0.95L586.55 0.95L586.55 0.95Q585.60 1.80 584.80 1.80L584.80 1.80ZM569.70-4L569.70-4Q572-4 576.25-9.85L576.25-9.85L576.25-9.85Q580.50-15.70 583.70-23.90L583.70-23.90L583.70-23.90Q586.90-32.10 586.90-39L586.90-39L586.90-39Q586.90-41.70 585.35-44L585.35-44L585.35-44Q583.80-46.30 581.30-46.30L581.30-46.30L581.30-46.30Q576.70-46.30 572.70-40.55L572.70-40.55L572.70-40.55Q568.70-34.80 566.20-26.20L566.20-26.20L566.20-26.20Q563.80-18.10 563.80-12.60L563.80-12.60L563.80-12.60Q563.80-8.90 565.25-6.45L565.25-6.45L565.25-6.45Q566.70-4 569.70-4L569.70-4ZM610.80-16L610.80-16Q609.30-16 609.10-18L609.10-18L609.10-18Q618.30-57.70 621.80-87.80L621.80-87.80L621.80-87.80Q622.40-92.50 623.30-97.70L623.30-97.70L623.30-97.70Q624.40-102.70 624.50-107.60L624.50-107.60L624.50-107.60Q624.80-108.60 625.65-109.30L625.65-109.30L625.65-109.30Q626.50-110 627.40-110L627.40-110L627.40-110Q628.60-110 629.10-108.30L629.10-108.30L629.10-108.30Q628.90-104 627.80-97.70L627.80-97.70L627.80-97.70Q626.50-89.60 625.50-80.90L625.50-80.90L625.50-80.90Q624.40-70.70 621.05-53.05L621.05-53.05L621.05-53.05Q617.70-35.40 613.60-18L613.60-18L613.60-18Q612.50-16 610.80-16L610.80-16ZM609.20 4.90L609.20 4.90Q608.40 4.90 607.90 4.40L607.90 4.40L607.90 4.40Q607.40 3.90 607.40 3.20L607.40 3.20L607.40 3.20Q607.40 2.50 607.50 2.30L607.50 2.30L607.50 2.30Q605.50 1.50 605.50-0.60L605.50-0.60L605.50-0.60Q605.50-2.70 607.25-4.20L607.25-4.20L607.25-4.20Q609.00-5.70 610.80-5.70L610.80-5.70L610.80-5.70Q612.40-5.70 613.30-4.65L613.30-4.65L613.30-4.65Q614.20-3.60 614.20-1.80L614.20-1.80L614.20-1.80Q614.20 0.30 612.75 2.60L612.75 2.60L612.75 2.60Q611.30 4.90 609.20 4.90L609.20 4.90Z" fill="#ffd5af"></path></g></g><style>text {
  font-size: 64px;
  font-family: Arial Black;
  dominant-baseline: central;
  text-anchor: middle;
}</style></svg>