<?xml version="1.0" encoding="utf-8"?>
<!-- Generator: Adobe Illustrator 23.0.6, SVG Export Plug-In . SVG Version: 6.00 Build 0)  -->
<svg version="1.1" id="Layer_1" xmlns="http://www.w3.org/2000/svg" xmlns:xlink="http://www.w3.org/1999/xlink" x="0px" y="0px"
	 viewBox="0 0 200 38" style="enable-background:new 0 0 200 38;" xml:space="preserve">
<style type="text/css">
	.st0{fill:#292F68;}
	.st1{opacity:0.27;}
	.st2{stroke:#000000;stroke-width:0.25;stroke-miterlimit:10;}
	.st3{fill:#E69D24;stroke:#E69D24;stroke-width:0.25;stroke-miterlimit:10;}
</style>
<rect x="-2.77" y="-3.5" class="st0" width="203.73" height="45.24"/>
<g>
	<g class="st1">
		<path class="st2" d="M40.96,11.05c0.1-0.06,0.19-0.09,0.29-0.09c0.09,0,0.19,0.03,0.29,0.09c0.08-0.06,0.17-0.09,0.27-0.09
			c0.22,0,0.36,0.13,0.43,0.4c-0.45,1.69-0.92,3.81-1.41,6.35c-0.48,2.54-0.8,4.18-0.94,4.92c-0.14,0.74-0.33,1.7-0.55,2.86
			s-0.57,2.39-1.04,3.66s-1.12,2.3-1.94,3.09c-0.99,0.92-2.26,1.37-3.8,1.37c-1.55,0-2.74-0.9-3.59-2.7
			c-0.45-0.95-0.67-1.53-0.67-1.75c0-0.22,0.06-0.41,0.19-0.54c0.12-0.14,0.24-0.21,0.35-0.21c0.27,0,0.43,0.1,0.48,0.31
			c0.12,0.53,0.34,1.1,0.65,1.71s0.71,1.13,1.19,1.55c0.48,0.42,1.08,0.64,1.81,0.64s1.4-0.21,2.01-0.62
			c0.61-0.41,1.14-0.97,1.58-1.68c0.73-1.19,1.36-3.06,1.91-5.62c0.11-0.56,0.24-1.19,0.39-1.89c0.15-0.7,0.3-1.43,0.46-2.2
			c0.16-0.77,0.32-1.55,0.49-2.34c0.17-0.79,0.33-1.56,0.49-2.31s0.31-1.45,0.45-2.1c0.14-0.66,0.26-1.23,0.37-1.72
			c-0.54,0.31-1.1,0.46-1.68,0.46s-1.29-0.12-2.15-0.35c-0.86-0.23-1.53-0.37-2-0.41c-0.21-0.1-0.32-0.23-0.32-0.39
			s0.07-0.31,0.2-0.45c0.13-0.14,0.28-0.22,0.45-0.24c0.39,0.05,1,0.18,1.83,0.41c0.83,0.23,1.5,0.34,2.01,0.34
			S40.45,11.35,40.96,11.05z"/>
		<path class="st2" d="M47.8,21.58c1.43,0,2.14,1.08,2.14,3.24c0,1.69-0.46,3.5-1.4,5.43c-0.63,1.3-1.38,2.24-2.27,2.81
			c-0.45,0.29-0.92,0.44-1.41,0.44c-0.85,0-1.47-0.34-1.84-1.02c-0.37-0.68-0.56-1.41-0.56-2.2c0-1.41,0.24-2.77,0.71-4.09
			c0.47-1.32,1.12-2.42,1.93-3.3C45.93,22.02,46.82,21.58,47.8,21.58z M44.76,25.33c-0.82,1.63-1.22,3.23-1.22,4.79
			c0,1.08,0.3,1.81,0.9,2.18c0.18,0.11,0.39,0.17,0.62,0.17c0.48,0,1.02-0.42,1.62-1.26c0.6-0.84,1.1-1.87,1.51-3.1
			s0.61-2.28,0.61-3.16s-0.05-1.44-0.15-1.67c-0.1-0.23-0.22-0.4-0.35-0.49c-0.13-0.09-0.35-0.14-0.66-0.14s-0.64,0.12-1,0.36
			C45.93,23.46,45.3,24.24,44.76,25.33z"/>
		<path class="st2" d="M53.52,23v-0.23c0-0.11-0.06-0.36-0.17-0.77c0-0.19,0.06-0.36,0.19-0.52c0.13-0.15,0.29-0.23,0.47-0.23
			c0.19,0,0.34,0.12,0.46,0.35c0.12,0.23,0.18,0.49,0.18,0.77c0,0.28-0.36,1.95-1.07,5.01c-0.71,3.06-1.07,4.67-1.07,4.84
			c0,0.16,0.08,0.24,0.23,0.24c0.1,0,0.24-0.1,0.42-0.29c0.18-0.19,0.34-0.29,0.46-0.29c0.25,0,0.37,0.16,0.37,0.47
			c0,0.31-0.23,0.59-0.7,0.82s-0.81,0.35-1.02,0.35c-0.53,0-0.79-0.42-0.79-1.27c0-0.17,0.04-0.37,0.11-0.58
			c0.07-0.22,0.15-0.51,0.23-0.9c0.08-0.38,0.19-0.9,0.34-1.56c0.15-0.66,0.3-1.34,0.45-2.04s0.34-1.56,0.57-2.56
			C53.4,23.62,53.52,23.08,53.52,23z M55.11,17.7c0.45,0,0.67,0.22,0.67,0.67c0,0.65-0.23,1.02-0.68,1.1
			c-0.13,0.02-0.27,0.03-0.42,0.03c-0.15,0-0.3-0.08-0.45-0.23C54.08,19.12,54,18.93,54,18.69s0.12-0.46,0.35-0.67
			C54.59,17.81,54.84,17.7,55.11,17.7z"/>
		<path class="st2" d="M63.79,24.12c0-0.75-0.2-1.12-0.61-1.12c-0.54,0-1.58,1.56-3.12,4.68c-0.7,1.41-1.18,2.48-1.46,3.2
			c-0.28,0.72-0.48,1.23-0.62,1.53s-0.27,0.52-0.4,0.67s-0.28,0.23-0.44,0.23c-0.16,0-0.26-0.04-0.29-0.12s-0.04-0.22-0.04-0.43
			s0.3-1.99,0.91-5.35c0.61-3.36,0.96-5.13,1.05-5.3s0.18-0.29,0.26-0.33c0.08-0.05,0.21-0.07,0.41-0.07c0.2,0,0.35,0.08,0.46,0.23
			c0.11,0.15,0.16,0.29,0.16,0.4s-0.02,0.23-0.05,0.35c-0.05,0.2-0.13,0.46-0.24,0.76c-0.36,1.04-0.71,2.5-1.04,4.4L58.5,29.2
			c0.17-0.36,0.37-0.8,0.59-1.31c0.22-0.51,0.54-1.24,0.98-2.19c0.43-0.95,0.91-1.8,1.44-2.55c0.68-0.98,1.32-1.47,1.91-1.47
			c1.04,0,1.55,0.84,1.55,2.51c0,0.63-0.09,1.41-0.27,2.35s-0.37,1.96-0.59,3.07s-0.33,2.03-0.36,2.76l-0.14,0.62
			c0,0.17-0.02,0.29-0.07,0.36c-0.05,0.07-0.2,0.11-0.44,0.11s-0.42-0.04-0.53-0.14c-0.11-0.09-0.15-0.25-0.11-0.49l1.13-6.78
			C63.73,25.2,63.79,24.56,63.79,24.12z"/>
		<path class="st2" d="M79.03,21.58c1.43,0,2.14,1.08,2.14,3.24c0,1.69-0.46,3.5-1.4,5.43c-0.63,1.3-1.38,2.24-2.27,2.81
			c-0.45,0.29-0.92,0.44-1.41,0.44c-0.85,0-1.47-0.34-1.84-1.02c-0.37-0.68-0.56-1.41-0.56-2.2c0-1.41,0.24-2.77,0.71-4.09
			c0.47-1.32,1.12-2.42,1.93-3.3C77.16,22.02,78.05,21.58,79.03,21.58z M75.99,25.33c-0.82,1.63-1.22,3.23-1.22,4.79
			c0,1.08,0.3,1.81,0.9,2.18c0.18,0.11,0.39,0.17,0.62,0.17c0.48,0,1.02-0.42,1.62-1.26c0.6-0.84,1.1-1.87,1.51-3.1
			s0.61-2.28,0.61-3.16s-0.05-1.44-0.15-1.67c-0.1-0.23-0.22-0.4-0.35-0.49c-0.13-0.09-0.35-0.14-0.66-0.14s-0.64,0.12-1,0.36
			C77.15,23.46,76.53,24.24,75.99,25.33z"/>
		<path class="st2" d="M88.78,33.86c-0.46,0-0.69-0.62-0.69-1.86c0-0.8,0.08-1.62,0.23-2.46c0.15-0.84,0.32-1.66,0.48-2.46
			c-0.28,0.5-0.54,1.01-0.79,1.54s-0.47,0.95-0.66,1.27s-0.34,0.59-0.45,0.81c-0.98,1.86-1.88,2.79-2.72,2.79s-1.25-0.83-1.25-2.48
			c0-2.12,0.34-4.53,1.01-7.22l0.35-1.41c0.14-0.51,0.39-0.77,0.73-0.77c0.2,0,0.33,0.13,0.4,0.4c-0.02,0.24-0.08,0.46-0.18,0.67
			s-0.17,0.43-0.22,0.68c-0.67,3.36-1,5.65-1,6.87L84,31.31c0,0.62,0.1,0.93,0.31,0.93c0.59,0,1.59-1.39,3.01-4.17
			c0.22-0.42,0.49-0.96,0.81-1.6c0.32-0.64,0.57-1.13,0.75-1.47c0.18-0.34,0.34-0.66,0.49-0.97c0.6-1.31,1.11-1.96,1.54-1.96
			c0.26,0,0.4,0.15,0.4,0.44s-0.15,0.77-0.44,1.43c-0.29,0.67-0.54,1.35-0.73,2.04c-0.54,1.94-0.88,3.97-1.01,6.09v0.12
			c0,0.23,0.05,0.4,0.14,0.5c0.09,0.11,0.16,0.19,0.21,0.24c0.05,0.05,0.07,0.15,0.07,0.31c0,0.16-0.09,0.3-0.27,0.43
			C89.09,33.8,88.93,33.86,88.78,33.86z"/>
		<path class="st2" d="M92.94,33.26l0.52-2.77c0.27-1.41,0.46-2.42,0.56-3.01s0.21-1.25,0.33-1.96c0.12-0.71,0.38-1.74,0.77-3.08
			c-0.02-0.04-0.02-0.07-0.02-0.1v-0.11c0-0.36,0.14-0.62,0.42-0.78c0.08-0.05,0.17-0.08,0.26-0.08c0.32,0,0.49,0.23,0.49,0.7
			c0,0.27-0.11,0.76-0.33,1.47c-0.22,0.71-0.39,1.36-0.51,1.97c0.11-0.17,0.24-0.39,0.39-0.66s0.4-0.65,0.74-1.16
			s0.76-0.99,1.27-1.45c0.51-0.46,1.03-0.69,1.56-0.69c0.53,0,0.94,0.14,1.22,0.43c0.11,0.1,0.16,0.22,0.16,0.37
			c0,0.15-0.07,0.29-0.2,0.41c-0.14,0.12-0.28,0.18-0.42,0.18c-0.14,0-0.28-0.04-0.42-0.12c-0.14-0.08-0.29-0.12-0.45-0.12
			c-0.17,0-0.43,0.14-0.79,0.41c-1.44,1.05-2.64,3.13-3.57,6.25c-0.25,0.83-0.4,1.41-0.45,1.72c-0.05,0.31-0.1,0.57-0.14,0.77
			c-0.23,1.22-0.57,1.83-1.04,1.83C93.05,33.68,92.94,33.54,92.94,33.26z"/>
		<path class="st2" d="M108.64,34.12c0-0.15,0.02-0.37,0.05-0.66c-0.22-0.05-0.44-0.09-0.67-0.12c-0.98-0.16-1.49-0.39-1.52-0.69
			c-0.01-0.04-0.01-0.1-0.01-0.19s0.04-0.18,0.13-0.28c0.09-0.1,0.17-0.15,0.25-0.15s0.16,0.01,0.24,0.03
			c0.11,0.04,0.29,0.12,0.56,0.24c0.27,0.12,0.65,0.19,1.15,0.19c1.72-8.48,3.4-15.15,5.02-19.99c-0.95,0.32-1.8,0.72-2.56,1.2
			c-0.1,0.04-0.18,0.06-0.25,0.06c-0.26,0-0.4-0.14-0.4-0.42c0-0.23,0.09-0.4,0.28-0.53c1.13-0.7,2.25-1.2,3.37-1.52
			c0.14-0.2,0.29-0.29,0.45-0.29s0.26,0.04,0.31,0.11c0.73-0.17,1.54-0.25,2.44-0.25s1.75,0.19,2.52,0.58c2.2,1.1,3.3,3.53,3.3,7.29
			c0,4.35-1.08,7.85-3.25,10.5c-1.5,1.83-3.49,3.09-5.96,3.79c-1.25,0.35-2.65,0.52-4.17,0.52h-0.15c-0.05,0.51-0.17,0.83-0.36,0.96
			c-0.08,0.06-0.19,0.09-0.33,0.09C108.78,34.59,108.64,34.43,108.64,34.12z M122.22,18.99c0-4.69-1.77-7.03-5.3-7.03
			c-0.73,0-1.38,0.08-1.97,0.23c-1.31,4.1-2.55,8.85-3.73,14.27c-0.41,1.87-0.83,3.89-1.28,6.08c2.71,0,4.98-0.61,6.83-1.83
			s3.21-2.86,4.11-4.91C121.77,23.75,122.22,21.48,122.22,18.99z"/>
		<path class="st2" d="M126.57,23v-0.23c0-0.11-0.06-0.36-0.17-0.77c0-0.19,0.06-0.36,0.19-0.52c0.13-0.15,0.29-0.23,0.47-0.23
			c0.19,0,0.34,0.12,0.46,0.35s0.18,0.49,0.18,0.77c0,0.28-0.36,1.95-1.07,5.01s-1.07,4.67-1.07,4.84c0,0.16,0.08,0.24,0.23,0.24
			c0.1,0,0.24-0.1,0.42-0.29c0.18-0.19,0.34-0.29,0.46-0.29c0.25,0,0.38,0.16,0.38,0.47c0,0.31-0.23,0.59-0.7,0.82
			s-0.81,0.35-1.02,0.35c-0.53,0-0.79-0.42-0.79-1.27c0-0.17,0.04-0.37,0.11-0.58c0.07-0.22,0.15-0.51,0.23-0.9s0.19-0.9,0.34-1.56
			c0.15-0.66,0.3-1.34,0.45-2.04s0.34-1.56,0.57-2.56C126.46,23.62,126.57,23.08,126.57,23z M128.17,17.7
			c0.45,0,0.67,0.22,0.67,0.67c0,0.65-0.23,1.02-0.68,1.1c-0.13,0.02-0.27,0.03-0.42,0.03s-0.3-0.08-0.45-0.23s-0.23-0.35-0.23-0.58
			s0.12-0.46,0.35-0.67C127.64,17.81,127.9,17.7,128.17,17.7z"/>
		<path class="st2" d="M133.32,22.46c-0.76,0-1.13,0.44-1.13,1.32c0,0.58,0.14,1.18,0.41,1.8s0.5,1.12,0.69,1.49
			c0.73,1.46,1.1,2.58,1.1,3.35c0,0.77-0.23,1.43-0.7,1.98s-1.15,0.87-2.03,0.98h-0.15c-0.85,0-1.47-0.53-1.86-1.58
			c-0.02-0.04-0.02-0.07-0.02-0.1v-0.11c0-0.16,0.05-0.29,0.15-0.39c0.1-0.1,0.2-0.16,0.32-0.19h0.12c0.15,0,0.27,0.06,0.37,0.18
			c0.09,0.12,0.18,0.26,0.27,0.4c0.08,0.15,0.17,0.28,0.27,0.4c0.1,0.12,0.27,0.18,0.51,0.18c0.51,0,0.92-0.16,1.23-0.48
			c0.31-0.32,0.46-0.68,0.46-1.07c0-0.39-0.06-0.76-0.17-1.1c-0.19-0.58-0.51-1.31-0.98-2.18c-0.77-1.43-1.16-2.54-1.16-3.33
			c0-0.79,0.2-1.44,0.6-1.95c0.4-0.51,0.97-0.76,1.7-0.76c0.45,0,0.84,0.09,1.17,0.28c0.61,0.36,0.92,0.75,0.92,1.2
			s-0.19,0.66-0.56,0.66c-0.14,0-0.25-0.05-0.33-0.15s-0.18-0.21-0.28-0.33C133.97,22.63,133.67,22.46,133.32,22.46z"/>
		<path class="st2" d="M138.08,30.38c0,1.38,0.5,2.06,1.51,2.06c0.5,0,0.97-0.24,1.41-0.73c0.17-0.19,0.32-0.36,0.46-0.51
			s0.29-0.23,0.44-0.23c0.3,0,0.45,0.13,0.45,0.4c0,0.48-0.31,0.97-0.93,1.47s-1.32,0.74-2.1,0.74s-1.38-0.29-1.78-0.87
			c-0.41-0.58-0.61-1.23-0.61-1.96c0-1.35,0.25-2.76,0.75-4.21c0.5-1.45,1.16-2.67,1.98-3.65s1.69-1.47,2.6-1.47
			c0.67,0,1.1,0.24,1.32,0.71c0.05,0.13,0.12,0.29,0.19,0.49c0.07,0.2,0.15,0.33,0.24,0.38c0.06,0.1,0.09,0.22,0.09,0.36
			c0,0.14-0.06,0.27-0.19,0.39c-0.13,0.12-0.27,0.18-0.43,0.18c-0.33,0-0.53-0.24-0.62-0.72s-0.34-0.72-0.76-0.72
			c-0.58,0-1.19,0.44-1.81,1.33c-0.62,0.88-1.15,1.96-1.58,3.22C138.3,28.32,138.08,29.43,138.08,30.38z"/>
		<path class="st2" d="M150.27,21.58c1.43,0,2.14,1.08,2.14,3.24c0,1.69-0.47,3.5-1.4,5.43c-0.63,1.3-1.38,2.24-2.27,2.81
			c-0.45,0.29-0.92,0.44-1.41,0.44c-0.85,0-1.47-0.34-1.84-1.02c-0.37-0.68-0.56-1.41-0.56-2.2c0-1.41,0.24-2.77,0.71-4.09
			s1.12-2.42,1.93-3.3S149.29,21.58,150.27,21.58z M147.23,25.33c-0.82,1.63-1.23,3.23-1.23,4.79c0,1.08,0.3,1.81,0.9,2.18
			c0.18,0.11,0.39,0.17,0.62,0.17c0.48,0,1.02-0.42,1.62-1.26c0.6-0.84,1.1-1.87,1.51-3.1s0.61-2.28,0.61-3.16s-0.05-1.44-0.15-1.67
			c-0.1-0.23-0.22-0.4-0.35-0.49c-0.13-0.09-0.35-0.14-0.66-0.14c-0.31,0-0.64,0.12-1,0.36C148.4,23.46,147.77,24.24,147.23,25.33z"
			/>
		<path class="st2" d="M154.17,33.26l0.52-2.77c0.27-1.41,0.46-2.42,0.56-3.01c0.1-0.59,0.21-1.25,0.33-1.96
			c0.12-0.71,0.38-1.74,0.77-3.08c-0.02-0.04-0.02-0.07-0.02-0.1v-0.11c0-0.36,0.14-0.62,0.42-0.78c0.08-0.05,0.17-0.08,0.26-0.08
			c0.33,0,0.49,0.23,0.49,0.7c0,0.27-0.11,0.76-0.33,1.47c-0.22,0.71-0.39,1.36-0.51,1.97c0.11-0.17,0.24-0.39,0.39-0.66
			s0.4-0.65,0.74-1.16c0.34-0.51,0.76-0.99,1.27-1.45c0.51-0.46,1.03-0.69,1.56-0.69s0.94,0.14,1.22,0.43
			c0.11,0.1,0.16,0.22,0.16,0.37c0,0.15-0.07,0.29-0.2,0.41c-0.14,0.12-0.28,0.18-0.42,0.18s-0.28-0.04-0.42-0.12
			c-0.14-0.08-0.29-0.12-0.45-0.12s-0.43,0.14-0.79,0.41c-1.44,1.05-2.63,3.13-3.57,6.25c-0.25,0.83-0.4,1.41-0.45,1.72
			s-0.1,0.57-0.14,0.77c-0.23,1.22-0.57,1.83-1.04,1.83C154.28,33.68,154.17,33.54,154.17,33.26z"/>
		<path class="st2" d="M169.29,22.62l1.11-4.88c0.08-0.35,0.26-1.25,0.55-2.69c0.29-1.45,0.5-2.46,0.64-3.02l0.04-0.28
			c0-0.2,0.07-0.36,0.2-0.5c0.13-0.14,0.27-0.21,0.41-0.21c0.33,0,0.5,0.18,0.5,0.53v0.1c0,0.37-0.27,1.78-0.8,4.23
			c-0.53,2.45-0.88,4.17-1.04,5.17c-0.16,1-0.46,2.39-0.9,4.18s-0.72,3-0.83,3.63s-0.22,1.16-0.33,1.59
			c-0.11,0.43-0.16,0.87-0.16,1.3c0,0.43,0.07,0.87,0.2,1.3c-0.02,0.18-0.11,0.33-0.25,0.46s-0.28,0.19-0.4,0.19
			c-0.2,0-0.37-0.23-0.51-0.7c-0.14-0.46-0.21-0.85-0.21-1.17c0-0.31,0.04-0.68,0.14-1.11c-0.31,0.94-0.71,1.63-1.2,2.08
			c-0.49,0.45-1.14,0.67-1.93,0.67s-1.36-0.33-1.7-0.98c-0.34-0.65-0.5-1.29-0.5-1.92c0-2.31,0.44-4.27,1.32-5.88
			c0.41-0.74,0.77-1.29,1.08-1.64c0.31-0.36,0.72-0.7,1.21-1.02c0.49-0.32,1.1-0.49,1.81-0.49
			C168.46,21.58,168.98,21.93,169.29,22.62z M168.46,26.27c0.12-0.62,0.19-1.01,0.23-1.18s0.05-0.45,0.05-0.84
			c0-0.39-0.11-0.77-0.34-1.14c-0.23-0.37-0.55-0.56-0.96-0.56c-0.74,0-1.42,0.47-2.04,1.4c-0.62,0.93-1.11,2.02-1.47,3.27
			c-0.37,1.24-0.55,2.29-0.55,3.15c0,0.85,0.24,1.46,0.73,1.83c0.16,0.12,0.37,0.18,0.63,0.18c0.54,0,1.11-0.46,1.72-1.37
			c0.61-0.92,1.07-1.78,1.37-2.59S168.34,26.88,168.46,26.27z"/>
		<path class="st2" d="M173.66,33.84c-0.31-0.11-0.46-0.34-0.46-0.67c0-0.34,0.14-0.62,0.41-0.84c0.28-0.23,0.54-0.34,0.8-0.34
			s0.46,0.09,0.6,0.26c0.14,0.17,0.2,0.4,0.2,0.66s-0.11,0.59-0.32,0.97c-0.22,0.38-0.5,0.57-0.84,0.57c-0.13,0-0.23-0.04-0.31-0.12
			c-0.08-0.08-0.11-0.17-0.11-0.26S173.64,33.89,173.66,33.84z M178.28,7.75c0.2,0,0.33,0.13,0.4,0.4
			c-0.02,0.62-0.12,1.44-0.29,2.47s-0.35,2.33-0.53,3.91s-0.53,3.73-1.04,6.45c-0.51,2.72-1.09,5.44-1.74,8.14
			c-0.14,0.31-0.36,0.46-0.65,0.46c-0.23,0-0.37-0.16-0.4-0.46c1.41-5.99,2.39-11.39,2.95-16.21c0.1-0.78,0.22-1.55,0.36-2.3
			c0.14-0.76,0.23-1.52,0.27-2.3c0.05-0.15,0.13-0.28,0.26-0.39C178,7.81,178.13,7.75,178.28,7.75z"/>
	</g>
	<g>
		<g>
			<path class="st3" d="M36.96,7.05c0.1-0.06,0.19-0.09,0.29-0.09c0.09,0,0.19,0.03,0.29,0.09c0.08-0.06,0.17-0.09,0.27-0.09
				c0.22,0,0.36,0.13,0.43,0.4c-0.45,1.69-0.92,3.81-1.41,6.35c-0.48,2.54-0.8,4.18-0.94,4.92c-0.14,0.74-0.33,1.7-0.55,2.86
				s-0.57,2.39-1.04,3.66s-1.12,2.3-1.94,3.09c-0.99,0.92-2.26,1.37-3.8,1.37c-1.55,0-2.74-0.9-3.59-2.7
				c-0.45-0.95-0.67-1.53-0.67-1.75c0-0.22,0.06-0.41,0.19-0.54c0.12-0.14,0.24-0.21,0.35-0.21c0.27,0,0.43,0.1,0.48,0.31
				c0.12,0.53,0.34,1.1,0.65,1.71s0.71,1.13,1.19,1.55c0.48,0.42,1.08,0.64,1.81,0.64s1.4-0.21,2.01-0.62
				c0.61-0.41,1.14-0.97,1.58-1.68c0.73-1.19,1.36-3.06,1.91-5.62c0.11-0.56,0.24-1.19,0.39-1.89c0.15-0.7,0.3-1.43,0.46-2.2
				c0.16-0.77,0.32-1.55,0.49-2.34c0.17-0.79,0.33-1.56,0.49-2.31s0.31-1.45,0.45-2.1c0.14-0.66,0.26-1.23,0.37-1.72
				c-0.54,0.31-1.1,0.46-1.68,0.46s-1.29-0.12-2.15-0.35c-0.86-0.23-1.53-0.37-2-0.41c-0.21-0.1-0.32-0.23-0.32-0.39
				s0.07-0.31,0.2-0.45c0.13-0.14,0.28-0.22,0.45-0.24c0.39,0.05,1,0.18,1.83,0.41c0.83,0.23,1.5,0.34,2.01,0.34
				S36.45,7.35,36.96,7.05z"/>
			<path class="st3" d="M43.8,17.58c1.43,0,2.14,1.08,2.14,3.24c0,1.69-0.46,3.5-1.4,5.43c-0.63,1.3-1.38,2.24-2.27,2.81
				c-0.45,0.29-0.92,0.44-1.41,0.44c-0.85,0-1.47-0.34-1.84-1.02c-0.37-0.68-0.56-1.41-0.56-2.2c0-1.41,0.24-2.77,0.71-4.09
				c0.47-1.32,1.12-2.42,1.93-3.3C41.93,18.02,42.82,17.58,43.8,17.58z M40.76,21.33c-0.82,1.63-1.22,3.23-1.22,4.79
				c0,1.08,0.3,1.81,0.9,2.18c0.18,0.11,0.39,0.17,0.62,0.17c0.48,0,1.02-0.42,1.62-1.26c0.6-0.84,1.1-1.87,1.51-3.1
				s0.61-2.28,0.61-3.16s-0.05-1.44-0.15-1.67c-0.1-0.23-0.22-0.4-0.35-0.49c-0.13-0.09-0.35-0.14-0.66-0.14s-0.64,0.12-1,0.36
				C41.93,19.46,41.3,20.24,40.76,21.33z"/>
			<path class="st3" d="M49.52,19v-0.23c0-0.11-0.06-0.36-0.17-0.77c0-0.19,0.06-0.36,0.19-0.52c0.13-0.15,0.29-0.23,0.47-0.23
				c0.19,0,0.34,0.12,0.46,0.35c0.12,0.23,0.18,0.49,0.18,0.77c0,0.28-0.36,1.95-1.07,5.01c-0.71,3.06-1.07,4.67-1.07,4.84
				c0,0.16,0.08,0.24,0.23,0.24c0.1,0,0.24-0.1,0.42-0.29c0.18-0.19,0.34-0.29,0.46-0.29c0.25,0,0.37,0.16,0.37,0.47
				c0,0.31-0.23,0.59-0.7,0.82s-0.81,0.35-1.02,0.35c-0.53,0-0.79-0.42-0.79-1.27c0-0.17,0.04-0.37,0.11-0.58
				c0.07-0.22,0.15-0.51,0.23-0.9c0.08-0.38,0.19-0.9,0.34-1.56c0.15-0.66,0.3-1.34,0.45-2.04s0.34-1.56,0.57-2.56
				C49.4,19.62,49.52,19.08,49.52,19z M51.11,13.7c0.45,0,0.67,0.22,0.67,0.67c0,0.65-0.23,1.02-0.68,1.1
				c-0.13,0.02-0.27,0.03-0.42,0.03c-0.15,0-0.3-0.08-0.45-0.23C50.08,15.12,50,14.93,50,14.69s0.12-0.46,0.35-0.67
				C50.59,13.81,50.84,13.7,51.11,13.7z"/>
			<path class="st3" d="M59.79,20.12c0-0.75-0.2-1.12-0.61-1.12c-0.54,0-1.58,1.56-3.12,4.68c-0.7,1.41-1.18,2.48-1.46,3.2
				c-0.28,0.72-0.48,1.23-0.62,1.53s-0.27,0.52-0.4,0.67s-0.28,0.23-0.44,0.23c-0.16,0-0.26-0.04-0.29-0.12s-0.04-0.22-0.04-0.43
				s0.3-1.99,0.91-5.35c0.61-3.36,0.96-5.13,1.05-5.3s0.18-0.29,0.26-0.33c0.08-0.05,0.21-0.07,0.41-0.07c0.2,0,0.35,0.08,0.46,0.23
				c0.11,0.15,0.16,0.29,0.16,0.4s-0.02,0.23-0.05,0.35c-0.05,0.2-0.13,0.46-0.24,0.76c-0.36,1.04-0.71,2.5-1.04,4.4L54.5,25.2
				c0.17-0.36,0.37-0.8,0.59-1.31c0.22-0.51,0.54-1.24,0.98-2.19c0.43-0.95,0.91-1.8,1.44-2.55c0.68-0.98,1.32-1.47,1.91-1.47
				c1.04,0,1.55,0.84,1.55,2.51c0,0.63-0.09,1.41-0.27,2.35s-0.37,1.96-0.59,3.07s-0.33,2.03-0.36,2.76l-0.14,0.62
				c0,0.17-0.02,0.29-0.07,0.36c-0.05,0.07-0.2,0.11-0.44,0.11s-0.42-0.04-0.53-0.14c-0.11-0.09-0.15-0.25-0.11-0.49l1.13-6.78
				C59.73,21.2,59.79,20.56,59.79,20.12z"/>
			<path class="st3" d="M75.03,17.58c1.43,0,2.14,1.08,2.14,3.24c0,1.69-0.46,3.5-1.4,5.43c-0.63,1.3-1.38,2.24-2.27,2.81
				c-0.45,0.29-0.92,0.44-1.41,0.44c-0.85,0-1.47-0.34-1.84-1.02c-0.37-0.68-0.56-1.41-0.56-2.2c0-1.41,0.24-2.77,0.71-4.09
				c0.47-1.32,1.12-2.42,1.93-3.3C73.16,18.02,74.05,17.58,75.03,17.58z M71.99,21.33c-0.82,1.63-1.22,3.23-1.22,4.79
				c0,1.08,0.3,1.81,0.9,2.18c0.18,0.11,0.39,0.17,0.62,0.17c0.48,0,1.02-0.42,1.62-1.26c0.6-0.84,1.1-1.87,1.51-3.1
				s0.61-2.28,0.61-3.16s-0.05-1.44-0.15-1.67c-0.1-0.23-0.22-0.4-0.35-0.49c-0.13-0.09-0.35-0.14-0.66-0.14s-0.64,0.12-1,0.36
				C73.15,19.46,72.53,20.24,71.99,21.33z"/>
			<path class="st3" d="M84.78,29.86c-0.46,0-0.69-0.62-0.69-1.86c0-0.8,0.08-1.62,0.23-2.46c0.15-0.84,0.32-1.66,0.48-2.46
				c-0.28,0.5-0.54,1.01-0.79,1.54s-0.47,0.95-0.66,1.27s-0.34,0.59-0.45,0.81c-0.98,1.86-1.88,2.79-2.72,2.79s-1.25-0.83-1.25-2.48
				c0-2.12,0.34-4.53,1.01-7.22l0.35-1.41c0.14-0.51,0.39-0.77,0.73-0.77c0.2,0,0.33,0.13,0.4,0.4c-0.02,0.24-0.08,0.46-0.18,0.67
				s-0.17,0.43-0.22,0.68c-0.67,3.36-1,5.65-1,6.87L80,27.31c0,0.62,0.1,0.93,0.31,0.93c0.59,0,1.59-1.39,3.01-4.17
				c0.22-0.42,0.49-0.96,0.81-1.6c0.32-0.64,0.57-1.13,0.75-1.47c0.18-0.34,0.34-0.66,0.49-0.97c0.6-1.31,1.11-1.96,1.54-1.96
				c0.26,0,0.4,0.15,0.4,0.44s-0.15,0.77-0.44,1.43c-0.29,0.67-0.54,1.35-0.73,2.04c-0.54,1.94-0.88,3.97-1.01,6.09v0.12
				c0,0.23,0.05,0.4,0.14,0.5c0.09,0.11,0.16,0.19,0.21,0.24c0.05,0.05,0.07,0.15,0.07,0.31c0,0.16-0.09,0.3-0.27,0.43
				C85.09,29.8,84.93,29.86,84.78,29.86z"/>
			<path class="st3" d="M88.94,29.26l0.52-2.77c0.27-1.41,0.46-2.42,0.56-3.01s0.21-1.25,0.33-1.96c0.12-0.71,0.38-1.74,0.77-3.08
				c-0.02-0.04-0.02-0.07-0.02-0.1v-0.11c0-0.36,0.14-0.62,0.42-0.78c0.08-0.05,0.17-0.08,0.26-0.08c0.32,0,0.49,0.23,0.49,0.7
				c0,0.27-0.11,0.76-0.33,1.47c-0.22,0.71-0.39,1.36-0.51,1.97c0.11-0.17,0.24-0.39,0.39-0.66s0.4-0.65,0.74-1.16
				s0.76-0.99,1.27-1.45c0.51-0.46,1.03-0.69,1.56-0.69c0.53,0,0.94,0.14,1.22,0.43c0.11,0.1,0.16,0.22,0.16,0.37
				c0,0.15-0.07,0.29-0.2,0.41c-0.14,0.12-0.28,0.18-0.42,0.18c-0.14,0-0.28-0.04-0.42-0.12c-0.14-0.08-0.29-0.12-0.45-0.12
				c-0.17,0-0.43,0.14-0.79,0.41c-1.44,1.05-2.64,3.13-3.57,6.25c-0.25,0.83-0.4,1.41-0.45,1.72c-0.05,0.31-0.1,0.57-0.14,0.77
				c-0.23,1.22-0.57,1.83-1.04,1.83C89.05,29.68,88.94,29.54,88.94,29.26z"/>
			<path class="st3" d="M104.64,30.12c0-0.15,0.02-0.37,0.05-0.66c-0.22-0.05-0.44-0.09-0.67-0.12c-0.98-0.16-1.49-0.39-1.52-0.69
				c-0.01-0.04-0.01-0.1-0.01-0.19s0.04-0.18,0.13-0.28c0.09-0.1,0.17-0.15,0.25-0.15s0.16,0.01,0.24,0.03
				c0.11,0.04,0.29,0.12,0.56,0.24c0.27,0.12,0.65,0.19,1.15,0.19c1.72-8.48,3.4-15.15,5.02-19.99c-0.95,0.32-1.8,0.72-2.56,1.2
				c-0.1,0.04-0.18,0.06-0.25,0.06c-0.26,0-0.4-0.14-0.4-0.42c0-0.23,0.09-0.4,0.28-0.53c1.13-0.7,2.25-1.2,3.37-1.52
				c0.14-0.2,0.29-0.29,0.45-0.29s0.26,0.04,0.31,0.11c0.73-0.17,1.54-0.25,2.44-0.25s1.75,0.19,2.52,0.58
				c2.2,1.1,3.3,3.53,3.3,7.29c0,4.35-1.08,7.85-3.25,10.5c-1.5,1.83-3.49,3.09-5.96,3.79c-1.25,0.35-2.65,0.52-4.17,0.52h-0.15
				c-0.05,0.51-0.17,0.83-0.36,0.96c-0.08,0.06-0.19,0.09-0.33,0.09C104.78,30.59,104.64,30.43,104.64,30.12z M118.22,14.99
				c0-4.69-1.77-7.03-5.3-7.03c-0.73,0-1.38,0.08-1.97,0.23c-1.31,4.1-2.55,8.85-3.73,14.27c-0.41,1.87-0.83,3.89-1.28,6.08
				c2.71,0,4.98-0.61,6.83-1.83s3.21-2.86,4.11-4.91C117.77,19.75,118.22,17.48,118.22,14.99z"/>
			<path class="st3" d="M122.57,19v-0.23c0-0.11-0.06-0.36-0.17-0.77c0-0.19,0.06-0.36,0.19-0.52c0.13-0.15,0.29-0.23,0.47-0.23
				c0.19,0,0.34,0.12,0.46,0.35s0.18,0.49,0.18,0.77c0,0.28-0.36,1.95-1.07,5.01s-1.07,4.67-1.07,4.84c0,0.16,0.08,0.24,0.23,0.24
				c0.1,0,0.24-0.1,0.42-0.29c0.18-0.19,0.34-0.29,0.46-0.29c0.25,0,0.38,0.16,0.38,0.47c0,0.31-0.23,0.59-0.7,0.82
				s-0.81,0.35-1.02,0.35c-0.53,0-0.79-0.42-0.79-1.27c0-0.17,0.04-0.37,0.11-0.58c0.07-0.22,0.15-0.51,0.23-0.9s0.19-0.9,0.34-1.56
				c0.15-0.66,0.3-1.34,0.45-2.04s0.34-1.56,0.57-2.56C122.46,19.62,122.57,19.08,122.57,19z M124.17,13.7
				c0.45,0,0.67,0.22,0.67,0.67c0,0.65-0.23,1.02-0.68,1.1c-0.13,0.02-0.27,0.03-0.42,0.03s-0.3-0.08-0.45-0.23
				s-0.23-0.35-0.23-0.58s0.12-0.46,0.35-0.67C123.64,13.81,123.9,13.7,124.17,13.7z"/>
			<path class="st3" d="M129.32,18.46c-0.76,0-1.13,0.44-1.13,1.32c0,0.58,0.14,1.18,0.41,1.8s0.5,1.12,0.69,1.49
				c0.73,1.46,1.1,2.58,1.1,3.35c0,0.77-0.23,1.43-0.7,1.98s-1.15,0.87-2.03,0.98h-0.15c-0.85,0-1.47-0.53-1.86-1.58
				c-0.02-0.04-0.02-0.07-0.02-0.1v-0.11c0-0.16,0.05-0.29,0.15-0.39c0.1-0.1,0.2-0.16,0.32-0.19h0.12c0.15,0,0.27,0.06,0.37,0.18
				c0.09,0.12,0.18,0.26,0.27,0.4c0.08,0.15,0.17,0.28,0.27,0.4c0.1,0.12,0.27,0.18,0.51,0.18c0.51,0,0.92-0.16,1.23-0.48
				c0.31-0.32,0.46-0.68,0.46-1.07c0-0.39-0.06-0.76-0.17-1.1c-0.19-0.58-0.51-1.31-0.98-2.18c-0.77-1.43-1.16-2.54-1.16-3.33
				c0-0.79,0.2-1.44,0.6-1.95c0.4-0.51,0.97-0.76,1.7-0.76c0.45,0,0.84,0.09,1.17,0.28c0.61,0.36,0.92,0.75,0.92,1.2
				s-0.19,0.66-0.56,0.66c-0.14,0-0.25-0.05-0.33-0.15s-0.18-0.21-0.28-0.33C129.97,18.63,129.67,18.46,129.32,18.46z"/>
			<path class="st3" d="M134.08,26.38c0,1.38,0.5,2.06,1.51,2.06c0.5,0,0.97-0.24,1.41-0.73c0.17-0.19,0.32-0.36,0.46-0.51
				s0.29-0.23,0.44-0.23c0.3,0,0.45,0.13,0.45,0.4c0,0.48-0.31,0.97-0.93,1.47s-1.32,0.74-2.1,0.74s-1.38-0.29-1.78-0.87
				c-0.41-0.58-0.61-1.23-0.61-1.96c0-1.35,0.25-2.76,0.75-4.21c0.5-1.45,1.16-2.67,1.98-3.65s1.69-1.47,2.6-1.47
				c0.67,0,1.1,0.24,1.32,0.71c0.05,0.13,0.12,0.29,0.19,0.49c0.07,0.2,0.15,0.33,0.24,0.38c0.06,0.1,0.09,0.22,0.09,0.36
				c0,0.14-0.06,0.27-0.19,0.39c-0.13,0.12-0.27,0.18-0.43,0.18c-0.33,0-0.53-0.24-0.62-0.72s-0.34-0.72-0.76-0.72
				c-0.58,0-1.19,0.44-1.81,1.33c-0.62,0.88-1.15,1.96-1.58,3.22C134.3,24.32,134.08,25.43,134.08,26.38z"/>
			<path class="st3" d="M146.27,17.58c1.43,0,2.14,1.08,2.14,3.24c0,1.69-0.47,3.5-1.4,5.43c-0.63,1.3-1.38,2.24-2.27,2.81
				c-0.45,0.29-0.92,0.44-1.41,0.44c-0.85,0-1.47-0.34-1.84-1.02c-0.37-0.68-0.56-1.41-0.56-2.2c0-1.41,0.24-2.77,0.71-4.09
				s1.12-2.42,1.93-3.3S145.29,17.58,146.27,17.58z M143.23,21.33c-0.82,1.63-1.23,3.23-1.23,4.79c0,1.08,0.3,1.81,0.9,2.18
				c0.18,0.11,0.39,0.17,0.62,0.17c0.48,0,1.02-0.42,1.62-1.26c0.6-0.84,1.1-1.87,1.51-3.1s0.61-2.28,0.61-3.16
				s-0.05-1.44-0.15-1.67c-0.1-0.23-0.22-0.4-0.35-0.49c-0.13-0.09-0.35-0.14-0.66-0.14c-0.31,0-0.64,0.12-1,0.36
				C144.4,19.46,143.77,20.24,143.23,21.33z"/>
			<path class="st3" d="M150.17,29.26l0.52-2.77c0.27-1.41,0.46-2.42,0.56-3.01c0.1-0.59,0.21-1.25,0.33-1.96
				c0.12-0.71,0.38-1.74,0.77-3.08c-0.02-0.04-0.02-0.07-0.02-0.1v-0.11c0-0.36,0.14-0.62,0.42-0.78c0.08-0.05,0.17-0.08,0.26-0.08
				c0.33,0,0.49,0.23,0.49,0.7c0,0.27-0.11,0.76-0.33,1.47c-0.22,0.71-0.39,1.36-0.51,1.97c0.11-0.17,0.24-0.39,0.39-0.66
				s0.4-0.65,0.74-1.16c0.34-0.51,0.76-0.99,1.27-1.45c0.51-0.46,1.03-0.69,1.56-0.69s0.94,0.14,1.22,0.43
				c0.11,0.1,0.16,0.22,0.16,0.37c0,0.15-0.07,0.29-0.2,0.41c-0.14,0.12-0.28,0.18-0.42,0.18s-0.28-0.04-0.42-0.12
				c-0.14-0.08-0.29-0.12-0.45-0.12s-0.43,0.14-0.79,0.41c-1.44,1.05-2.63,3.13-3.57,6.25c-0.25,0.83-0.4,1.41-0.45,1.72
				s-0.1,0.57-0.14,0.77c-0.23,1.22-0.57,1.83-1.04,1.83C150.28,29.68,150.17,29.54,150.17,29.26z"/>
			<path class="st3" d="M165.29,18.62l1.11-4.88c0.08-0.35,0.26-1.25,0.55-2.69c0.29-1.45,0.5-2.46,0.64-3.02l0.04-0.28
				c0-0.2,0.07-0.36,0.2-0.5c0.13-0.14,0.27-0.21,0.41-0.21c0.33,0,0.5,0.18,0.5,0.53v0.1c0,0.37-0.27,1.78-0.8,4.23
				c-0.53,2.45-0.88,4.17-1.04,5.17c-0.16,1-0.46,2.39-0.9,4.18s-0.72,3-0.83,3.63s-0.22,1.16-0.33,1.59
				c-0.11,0.43-0.16,0.87-0.16,1.3c0,0.43,0.07,0.87,0.2,1.3c-0.02,0.18-0.11,0.33-0.25,0.46s-0.28,0.19-0.4,0.19
				c-0.2,0-0.37-0.23-0.51-0.7c-0.14-0.46-0.21-0.85-0.21-1.17c0-0.31,0.04-0.68,0.14-1.11c-0.31,0.94-0.71,1.63-1.2,2.08
				c-0.49,0.45-1.14,0.67-1.93,0.67s-1.36-0.33-1.7-0.98c-0.34-0.65-0.5-1.29-0.5-1.92c0-2.31,0.44-4.27,1.32-5.88
				c0.41-0.74,0.77-1.29,1.08-1.64c0.31-0.36,0.72-0.7,1.21-1.02c0.49-0.32,1.1-0.49,1.81-0.49
				C164.46,17.58,164.98,17.93,165.29,18.62z M164.46,22.27c0.12-0.62,0.19-1.01,0.23-1.18s0.05-0.45,0.05-0.84
				c0-0.39-0.11-0.77-0.34-1.14c-0.23-0.37-0.55-0.56-0.96-0.56c-0.74,0-1.42,0.47-2.04,1.4c-0.62,0.93-1.11,2.02-1.47,3.27
				c-0.37,1.24-0.55,2.29-0.55,3.15c0,0.85,0.24,1.46,0.73,1.83c0.16,0.12,0.37,0.18,0.63,0.18c0.54,0,1.11-0.46,1.72-1.37
				c0.61-0.92,1.07-1.78,1.37-2.59S164.34,22.88,164.46,22.27z"/>
			<path class="st3" d="M169.66,29.84c-0.31-0.11-0.46-0.34-0.46-0.67c0-0.34,0.14-0.62,0.41-0.84c0.28-0.23,0.54-0.34,0.8-0.34
				s0.46,0.09,0.6,0.26c0.14,0.17,0.2,0.4,0.2,0.66s-0.11,0.59-0.32,0.97c-0.22,0.38-0.5,0.57-0.84,0.57
				c-0.13,0-0.23-0.04-0.31-0.12c-0.08-0.08-0.11-0.17-0.11-0.26S169.64,29.89,169.66,29.84z M174.28,3.75c0.2,0,0.33,0.13,0.4,0.4
				c-0.02,0.62-0.12,1.44-0.29,2.47s-0.35,2.33-0.53,3.91s-0.53,3.73-1.04,6.45c-0.51,2.72-1.09,5.44-1.74,8.14
				c-0.14,0.31-0.36,0.46-0.65,0.46c-0.23,0-0.37-0.16-0.4-0.46c1.41-5.99,2.39-11.39,2.95-16.21c0.1-0.78,0.22-1.55,0.36-2.3
				c0.14-0.76,0.23-1.52,0.27-2.3c0.05-0.15,0.13-0.28,0.26-0.39C174,3.81,174.13,3.75,174.28,3.75z"/>
		</g>
	</g>
</g>
</svg>
